<svg xmlns="http://www.w3.org/2000/svg" viewBox="0 0 90 90"><defs><style>.cls-1{fill:#fff;}.cls-2{fill:#269100;}.cls-3{fill:#faa538;}.cls-4{fill:#0b0d93;}</style></defs><g id="Layer_2" data-name="Layer 2"><g id="Layer_1-2" data-name="Layer 1"><path class="cls-1" d="M2.43,58.38H87.57V31.62H2.43ZM45,32.84A12.16,12.16,0,1,1,32.84,45,12.15,12.15,0,0,1,45,32.84Z"/><path class="cls-2" d="M2.43,74.19A13.38,13.38,0,0,0,15.81,87.57H74.19A13.38,13.38,0,0,0,87.57,74.19V60.81H2.43Z"/><path class="cls-1" d="M45,54.73A9.73,9.73,0,1,0,35.27,45,9.73,9.73,0,0,0,45,54.73Zm0-13.38A3.65,3.65,0,1,1,41.35,45,3.64,3.64,0,0,1,45,41.35Z"/><path class="cls-3" d="M87.57,15.81A13.38,13.38,0,0,0,74.19,2.43H15.81A13.38,13.38,0,0,0,2.43,15.81V29.19H87.57Z"/><path d="M74.19,0H15.81A15.81,15.81,0,0,0,0,15.81V74.19A15.81,15.81,0,0,0,15.81,90H74.19A15.81,15.81,0,0,0,90,74.19V15.81A15.81,15.81,0,0,0,74.19,0ZM2.43,31.62H87.57V58.38H2.43ZM87.57,74.19A13.38,13.38,0,0,1,74.19,87.57H15.81A13.38,13.38,0,0,1,2.43,74.19V60.81H87.57Zm-85.14-45V15.81A13.38,13.38,0,0,1,15.81,2.43H74.19A13.38,13.38,0,0,1,87.57,15.81V29.19Z"/><path class="cls-4" d="M45,57.16A12.16,12.16,0,1,0,32.84,45,12.15,12.15,0,0,0,45,57.16Zm0-21.89A9.73,9.73,0,1,1,35.27,45,9.73,9.73,0,0,1,45,35.27Z"/><circle class="cls-4" cx="45" cy="45" r="3.65"/></g></g></svg>