<svg xmlns="http://www.w3.org/2000/svg" viewBox="0 0 90 90"><defs><style>.cls-1{fill:#be1b33;}.cls-2{fill:#fff;}</style></defs><g id="Layer_2" data-name="Layer 2"><g id="Layer_1-2" data-name="Layer 1"><circle class="cls-1" cx="45" cy="45" r="23.11"/><path class="cls-2" d="M74.19,2.43H15.81A13.38,13.38,0,0,0,2.43,15.81V74.19A13.38,13.38,0,0,0,15.81,87.57H74.19A13.38,13.38,0,0,0,87.57,74.19V15.81A13.38,13.38,0,0,0,74.19,2.43ZM45,70.54A25.54,25.54,0,1,1,70.54,45,25.53,25.53,0,0,1,45,70.54Z"/><path d="M74.19,0H15.81A15.81,15.81,0,0,0,0,15.81V74.19A15.81,15.81,0,0,0,15.81,90H74.19A15.81,15.81,0,0,0,90,74.19V15.81A15.81,15.81,0,0,0,74.19,0ZM87.57,74.19A13.38,13.38,0,0,1,74.19,87.57H15.81A13.38,13.38,0,0,1,2.43,74.19V15.81A13.38,13.38,0,0,1,15.81,2.43H74.19A13.38,13.38,0,0,1,87.57,15.81Z"/><path d="M45,19.46A25.54,25.54,0,1,0,70.54,45,25.53,25.53,0,0,0,45,19.46Zm0,48.65A23.11,23.11,0,1,1,68.11,45,23.11,23.11,0,0,1,45,68.11Z"/></g></g></svg>