<?xml version="1.0" encoding="utf-8"?>
<!-- Generator: Adobe Illustrator 25.2.0, SVG Export Plug-In . SVG Version: 6.00 Build 0)  -->
<svg version="1.1" id="Layer_1" xmlns="http://www.w3.org/2000/svg" xmlns:xlink="http://www.w3.org/1999/xlink" x="0px" y="0px"
	 viewBox="0 0 3300 2200" style="enable-background:new 0 0 3300 2200;" xml:space="preserve">
<style type="text/css">
	.st0{fill:#FFFFFF;}
	.st1{fill:none;stroke:#000000;stroke-width:0.5;}
	.st2{font-family:'Arial-BoldMT';}
	.st3{font-size:12px;}
	.st4{font-family:'ArialMT';}
	.st5{fill:none;stroke:#00AEEF;stroke-width:0.5;}
	.st6{fill:#27AAE1;}
	.st7{fill:none;stroke:#27AAE1;stroke-width:0.5;}
</style>
<g id="Notes">
	<rect id="artboard" class="st0" width="3300" height="2200"/>
	<line class="st1" x1="263" y1="292" x2="3036" y2="292"/>
	<text transform="matrix(1 0 0 1 263 322)" class="st2 st3">Weight/Scale Variations</text>
	<text transform="matrix(1 0 0 1 536.0361 322)" class="st4 st3">Ultralight</text>
	<text transform="matrix(1 0 0 1 844.7501 322)" class="st4 st3">Thin</text>
	<text transform="matrix(1 0 0 1 1140.1193 322)" class="st4 st3">Light</text>
	<text transform="matrix(1 0 0 1 1428.8282 322)" class="st4 st3">Regular</text>
	<text transform="matrix(1 0 0 1 1725.2202 322)" class="st4 st3">Medium</text>
	<text transform="matrix(1 0 0 1 2018.2563 322)" class="st4 st3">Semibold</text>
	<text transform="matrix(1 0 0 1 2327.9712 322)" class="st4 st3">Bold</text>
	<text transform="matrix(1 0 0 1 2619.6831 322)" class="st4 st3">Heavy</text>
	<text transform="matrix(1 0 0 1 2918.728 322)" class="st4 st3">Black</text>
	<line class="st1" x1="263" y1="1903" x2="3036" y2="1903"/>
	<g transform="matrix(1 0 0 1 263 1933)">
		<path d="M9.2,0.8c4.3,0,7.9-3.6,7.9-7.9c0-4.3-3.6-7.9-7.9-7.9c-4.3,0-7.9,3.6-7.9,7.9C1.4-2.7,5,0.8,9.2,0.8z M9.2-0.7
			c-3.5,0-6.4-2.8-6.4-6.4c0-3.6,2.8-6.4,6.4-6.4c3.6,0,6.4,2.8,6.4,6.4C15.7-3.5,12.8-0.7,9.2-0.7z M6.4-6.3h2.1v2.1
			c0,0.4,0.3,0.7,0.7,0.7c0.4,0,0.7-0.3,0.7-0.7v-2.1h2.1c0.4,0,0.7-0.3,0.7-0.7c0-0.4-0.3-0.7-0.7-0.7H10v-2.1
			c0-0.4-0.3-0.8-0.7-0.8c-0.4,0-0.7,0.3-0.7,0.8v2.1H6.4C5.9-7.8,5.6-7.5,5.6-7C5.6-6.6,5.9-6.3,6.4-6.3z"/>
	</g>
	<g transform="matrix(1 0 0 1 281.506 1933)">
		<path d="M11.7,2.9c5.4,0,10-4.5,10-10c0-5.4-4.5-10-10-10c-5.4,0-10,4.5-10,10C1.7-1.6,6.3,2.9,11.7,2.9z M11.7,1.2
			c-4.6,0-8.3-3.7-8.3-8.3c0-4.6,3.7-8.3,8.3-8.3c4.6,0,8.3,3.7,8.3,8.3C20-2.4,16.3,1.2,11.7,1.2z M8-6.2h2.9v2.9
			c0,0.5,0.3,0.8,0.8,0.8c0.5,0,0.8-0.3,0.8-0.8v-2.9h2.9c0.5,0,0.8-0.3,0.8-0.8c0-0.5-0.3-0.8-0.8-0.8h-2.9v-2.9
			c0-0.5-0.3-0.8-0.8-0.8c-0.5,0-0.8,0.3-0.8,0.8v2.9H8C7.5-7.9,7.1-7.5,7.1-7C7.1-6.6,7.5-6.2,8-6.2z"/>
	</g>
	<g transform="matrix(1 0 0 1 304.924 1933)">
		<path d="M15,5.7c7,0,12.7-5.8,12.7-12.7c0-7-5.8-12.7-12.7-12.7C8-19.8,2.3-14,2.3-7.1C2.3-0.1,8,5.7,15,5.7z M15,3.8
			C8.9,3.8,4.1-1,4.1-7.1c0-6,4.8-10.9,10.9-10.9c6,0,10.9,4.9,10.9,10.9C25.9-1,21,3.8,15,3.8z M10.1-6.1h4v4
			c0,0.5,0.4,0.9,0.9,0.9c0.5,0,0.9-0.4,0.9-0.9v-4h4c0.5,0,0.9-0.4,0.9-0.9c0-0.5-0.4-0.9-0.9-0.9h-4v-4c0-0.6-0.4-0.9-0.9-0.9
			c-0.5,0-0.9,0.4-0.9,0.9v4h-4C9.5-7.9,9.1-7.6,9.1-7C9.1-6.5,9.5-6.1,10.1-6.1z"/>
	</g>
	<text transform="matrix(1 0 0 1 263 1953)" class="st2 st3">Design Variations</text>
	<text transform="matrix(1 0 0 1 263 1971)" class="st4 st3">Symbols are supported in up to nine weights and three scales.</text>
	<text transform="matrix(1 0 0 1 263 1989)" class="st4 st3">For optimal layout with text and other symbols, vertically align</text>
	<text transform="matrix(1 0 0 1 263 2007)" class="st4 st3">symbols with the adjacent text.</text>
	<line class="st5" x1="776" y1="1919" x2="776" y2="1933"/>
	<g transform="matrix(1 0 0 1 776 1933)">
		<path d="M3.3,0.1c0.5,0,0.8-0.2,1-0.7l1.3-3.5h5.8l1.3,3.5c0.2,0.5,0.4,0.7,0.9,0.7c0.5,0,0.8-0.3,0.8-0.8c0-0.2,0-0.3-0.1-0.5
			L9.7-13.4C9.4-14,9-14.3,8.4-14.3c-0.6,0-1,0.3-1.2,0.9L2.6-1.2C2.5-1,2.5-0.8,2.5-0.7C2.5-0.2,2.8,0.1,3.3,0.1z M6-5.5l2.4-6.6h0
			l2.4,6.6H6z"/>
	</g>
	<line class="st5" x1="792.8" y1="1919" x2="792.8" y2="1933"/>
	<text transform="matrix(1 0 0 1 776 1953)" class="st2 st3">Margins</text>
	<text transform="matrix(1 0 0 1 776 1971)" class="st4 st3">Leading and trailing margins on the left and right side of each symbol</text>
	<text transform="matrix(1 0 0 1 776 1989)" class="st4 st3">can be adjusted by modifying the x-location of the margin guidelines.</text>
	<text transform="matrix(1 0 0 1 776 2007)" class="st4 st3">Modifications are automatically applied proportionally to all</text>
	<text transform="matrix(1 0 0 1 776 2025)" class="st4 st3">scales and weights.</text>
	<g transform="matrix(1 0 0 1 1289 1933)">
		<path d="M2.8,1.9l1.7,1.7c0.9,0.9,1.8,0.8,2.8-0.2L17.5-7.9c0.3,0.1,0.5,0.1,0.8,0L19.4-8l0.7,0.7l0,0.6c0,0.5,0.1,0.9,0.6,1.4
			l0.8,0.7c0.5,0.5,1.1,0.5,1.6,0l2.9-2.9c0.5-0.5,0.4-1.1,0-1.5L25-9.9c-0.5-0.5-0.8-0.6-1.3-0.6l-0.6,0l-0.6-0.6l0.2-1.1
			c0.1-0.6,0-1-0.6-1.6L19.9-16c-3.3-3.3-7.8-3.2-10.7-0.4c-0.4,0.4-0.4,1-0.2,1.4c0.2,0.4,0.7,0.6,1.3,0.4c1.5-0.3,3-0.4,4.4,0.5
			l-0.6,1.5c-0.2,0.5-0.2,0.9-0.1,1.2L3-0.9C2.1,0,2,1,2.8,1.9z M10.8-16c2.4-1.8,5.7-1.5,7.9,0.8l2.4,2.4c0.2,0.2,0.3,0.4,0.2,0.8
			L21-10.5l1.5,1.5l1-0.1c0.3,0,0.3,0,0.5,0.2l0.6,0.6l-2.4,2.4l-0.6-0.6c-0.2-0.2-0.2-0.3-0.2-0.5l0.1-1L20-9.5l-1.5,0.3
			c-0.3,0.1-0.5,0-0.7-0.2l-2-2c-0.3-0.2-0.3-0.4-0.1-0.8l0.9-2.1c-1.6-1.5-3.6-2.1-5.6-1.5C10.7-15.7,10.6-15.8,10.8-16z M5.3,2.3
			L4.1,1.1C3.6,0.7,3.7,0.3,4.1,0L15-10.2l1.5,1.5l-10,11C6.1,2.7,5.7,2.8,5.3,2.3z"/>
	</g>
	<text transform="matrix(1 0 0 1 1289 1953)" class="st2 st3">Exporting</text>
	<text transform="matrix(1 0 0 1 1289 1971)" class="st4 st3">Symbols should be outlined when exporting to ensure the</text>
	<text transform="matrix(1 0 0 1 1289 1989)" class="st4 st3">design is preserved when submitting to Xcode.</text>
	<text id="template-version" transform="matrix(1 0 0 1 2958.8496 1933)" class="st4 st3">Template v.2.0</text>
	<text transform="matrix(1 0 0 1 2878.5762 1951)" class="st4 st3">Requires Xcode 12 or greater</text>
	<text transform="matrix(1 0 0 1 2915.9297 1969)" class="st4 st3">Generated from house</text>
	<text transform="matrix(1 0 0 1 2921.9238 1987)" class="st4 st3">Typeset at 100 points</text>
	<text transform="matrix(1 0 0 1 263 726)" class="st4 st3">Small</text>
	<text transform="matrix(1 0 0 1 263 1156)" class="st4 st3">Medium</text>
	<text transform="matrix(1 0 0 1 263 1586)" class="st4 st3">Large</text>
</g>
<g id="Guides">
	<g id="H-reference" transform="matrix(1 0 0 1 339 696)">
		<path class="st6" d="M1,0h2.7L13-24.5h32.8L55.1,0h2.6L30.6-70.5h-2.5L1,0z M29.3-67.1L29.3-67.1l15.5,40.4h-31L29.3-67.1z"/>
	</g>
	<line id="Baseline-S" class="st7" x1="263" y1="696" x2="3036" y2="696"/>
	<line id="Capline-S" class="st7" x1="263" y1="625.5" x2="3036" y2="625.5"/>
	<g id="H-reference_1_" transform="matrix(1 0 0 1 339 1126)">
		<path class="st6" d="M1,0h2.7L13-24.5h32.8L55.1,0h2.6L30.6-70.5h-2.5L1,0z M29.3-67.1L29.3-67.1l15.5,40.4h-31L29.3-67.1z"/>
	</g>
	<line id="Baseline-M" class="st7" x1="263" y1="1126" x2="3036" y2="1126"/>
	<line id="Capline-M" class="st7" x1="263" y1="1055.5" x2="3036" y2="1055.5"/>
	<g id="H-reference_2_" transform="matrix(1 0 0 1 339 1556)">
		<path class="st6" d="M1,0h2.7L13-24.5h32.8L55.1,0h2.6L30.6-70.5h-2.5L1,0z M29.3-67.1L29.3-67.1l15.5,40.4h-31L29.3-67.1z"/>
	</g>
	<line id="Baseline-L" class="st7" x1="263" y1="1556" x2="3036" y2="1556"/>
	<line id="Capline-L" class="st7" x1="263" y1="1485.5" x2="3036" y2="1485.5"/>
	<line id="left-margin" class="st5" x1="1379.1" y1="1030.8" x2="1379.1" y2="1150.1"/>
	<line id="right-margin" class="st5" x1="1520.6" y1="1030.8" x2="1520.6" y2="1150.1"/>
</g>
<path d="M2850.3,1518.8c0,5.6,4,9.6,10.2,9.6c2.6,0,5.5-1.3,7.8-3.3l3.7-3.1v53.5c0,11,7,17.9,18.7,17.9h85.3
	c11.7,0,18.7-6.9,18.7-17.9v-53.6l3.9,3.3c2.3,2,5.1,3.3,7.8,3.3c6,0,10.1-3.8,10.1-9.6c0-3-1.5-6.1-4.1-8.2l-17.8-14.9v-29.2
	c0-3.2-2.1-5.2-5.2-5.2h-14.6c-3.2,0-5.3,2-5.3,5.2v8.2l-22.9-19.3c-8-6.6-18.5-6.6-26.4,0l-65.9,55.3
	C2851.8,1512.9,2850.3,1516,2850.3,1518.8z M2951.4,1535c0-3.1-2-5.1-5.1-5.1h-25.7c-3.1,0-5.2,2-5.2,5.1v38.2h-17.6
	c-3.5,0-5.5-2.1-5.5-5.6v-62.5l37-31.1c2.7-2.3,5.6-2.2,8.3,0l36.7,30.9v62.7c0,3.5-2.1,5.6-5.5,5.6h-17.4V1535z"/>
<path d="M2555.9,1518.3c0,4.8,3.5,8.3,8.8,8.3c2.4,0,4.8-1.2,6.9-2.9l5-4.2v55.4c0,10.4,6.5,16.8,17.4,16.8h85.3
	c10.9,0,17.4-6.4,17.4-16.8v-55.6l5.2,4.4c2.1,1.7,4.4,2.9,6.8,2.9c5.2,0,8.8-3.2,8.8-8.3c0-2.7-1.3-5.3-3.5-7.2l-17.4-14.6v-28.5
	c0-3-1.9-4.9-4.9-4.9h-12.6c-3,0-5,1.9-5,4.9v9.6l-25.7-21.6c-7.1-6-16.4-6-23.5,0l-65.6,55.1
	C2557.1,1513.2,2555.9,1515.8,2555.9,1518.3z M2654.7,1534.9c0-3-2-5-5-5h-25.9c-3,0-5.1,2-5.1,5v39.4h-18.8c-3.7,0-5.8-2.1-5.8-5.9
	v-63.5l39-32.7c2.4-2.1,5.1-2.1,7.5,0l38.6,32.4v63.8c0,3.8-2.1,5.9-5.8,5.9h-18.7V1534.9z"/>
<path d="M2261.7,1517.7c0,3.9,2.9,6.9,7.4,6.9c2.1,0,4.1-1.1,5.8-2.5l6.4-5.4v57.6c0,9.8,5.9,15.6,16.1,15.6h85.2
	c10.1,0,16.1-5.9,16.1-15.6v-57.9l6.6,5.6c1.7,1.4,3.7,2.5,5.8,2.5c4.2,0,7.3-2.7,7.3-6.8c0-2.3-1-4.4-2.9-6l-16.9-14.3v-27.6
	c0-2.8-1.8-4.6-4.6-4.6h-10.4c-2.8,0-4.7,1.8-4.7,4.6v11.1l-28.7-24.1c-6.2-5.2-14.1-5.2-20.3,0l-65.3,54.8
	C2262.7,1513.4,2261.7,1515.6,2261.7,1517.7z M2358,1534.9c0-3-1.9-4.8-4.8-4.8h-26.3c-2.9,0-4.9,1.9-4.9,4.8v40.7h-20.3
	c-3.9,0-6.1-2.2-6.1-6.2v-64.7l41.1-34.5c2.1-1.8,4.4-1.8,6.6,0l40.7,34.2v65c0,4-2.1,6.2-6.1,6.2h-20V1534.9z"/>
<g id="Semibold-L">
	<path d="M2118,1519.2c0-1.8-0.7-3.5-2.2-4.8l-68.6-58.2c-1.2-1-2.6-1.5-4-1.5c-1.4,0-2.9,0.5-4,1.5l-68.6,58.2
		c-1.5,1.2-2.2,3-2.2,4.8c0,4.2,3.6,6.2,6.2,6.2c1.4,0,2.9-0.5,4-1.5l6.4-5.4v58.8c0,5.7,4.7,10.4,10.4,10.4h24.9
		c5.7,0,10.4-4.7,10.4-10.4v-31.2h24.9v31.2c0,5.7,4.7,10.4,10.4,10.4h24.9c5.7,0,10.4-4.7,10.4-10.4v-58.8l6.4,5.4
		c1.2,1,2.6,1.5,4,1.5C2114.4,1525.4,2118,1523.3,2118,1519.2z M2088.9,1575.3h-20.8v-31.2c0-5.7-4.7-10.4-10.4-10.4h-29.1
		c-5.7,0-10.4,4.7-10.4,10.4v31.2h-20.8v-66.5c0-0.3-0.1-0.5-0.1-0.7l45.9-38.9l45.7,38.8V1575.3z"/>
</g>
<path d="M1671.3,1516.9c0,2.8,2.1,5.2,5.6,5.2c1.7,0,3.2-0.9,4.5-2l8.1-6.8v60.4c0,8.9,5.3,14.1,14.4,14.1h85.1
	c9.1,0,14.4-5.2,14.4-14.1v-60.6l8.4,7.1c1.3,1.1,2.8,2,4.5,2c3.2,0,5.6-2,5.6-5.1c0-1.9-0.7-3.3-2.1-4.5l-16.3-13.7v-26.7
	c0-2.5-1.7-4.2-4.2-4.2h-7.7c-2.6,0-4.3,1.7-4.3,4.2v13l-32.3-27.1c-5-4.2-11.3-4.2-16.4,0l-65,54.6
	C1671.9,1513.8,1671.3,1515.4,1671.3,1516.9z M1764.5,1534.8c0-2.8-1.8-4.6-4.6-4.6h-26.7c-2.8,0-4.6,1.8-4.6,4.6v42.3h-22
	c-4.2,0-6.4-2.2-6.4-6.5v-66.2l43.7-36.6c1.7-1.5,3.7-1.6,5.5,0l43.3,36.3v66.5c0,4.3-2.2,6.5-6.4,6.5h-21.7V1534.8z"/>
<g id="Regular-L">
	<path d="M1523.1,1520.9c0-1.1-0.5-2.3-1.4-3.1l-69.2-61.1c-0.8-0.7-1.7-1-2.7-1c-1,0-1.9,0.3-2.7,1l-69.2,61.1
		c-0.9,0.8-1.4,1.9-1.4,3.1c0,2.3,1.8,4.1,4.1,4.1c1,0,1.9-0.3,2.7-1l9.5-8.4v58.3c0,6.7,5.5,12.2,12.2,12.2h20.4
		c6.7,0,12.2-5.5,12.2-12.2v-28.5h24.4v28.5c0,6.7,5.5,12.2,12.2,12.2h20.4c6.7,0,12.2-5.5,12.2-12.2v-58.3l9.5,8.4
		c0.8,0.7,1.7,1,2.7,1C1521.3,1524.9,1523.1,1523.1,1523.1,1520.9z M1498.7,1508.7v65.1c0,2.2-1.8,4.1-4.1,4.1h-20.4
		c-2.2,0-4.1-1.8-4.1-4.1v-28.5c0-4.5-3.7-8.1-8.1-8.1h-24.4c-4.5,0-8.1,3.6-8.1,8.1v28.5c0,2.2-1.8,4.1-4.1,4.1h-20.4
		c-2.2,0-4.1-1.8-4.1-4.1v-65.1c0-0.1,0-0.2-0.1-0.3l48.9-43.2l48.9,43.2C1498.7,1508.5,1498.7,1508.6,1498.7,1508.7z"/>
</g>
<path d="M1081.7,1515.5c0,1.7,1.3,3.2,3.5,3.2c1.1,0,2-0.6,2.8-1.3l10.3-8.5v64.2c0,8,4.4,12.4,12.5,12.4h84.7
	c8.1,0,12.5-4.4,12.5-12.4v-64.3l10.3,8.6c0.8,0.7,1.7,1.3,2.8,1.3c2,0,3.5-1.2,3.5-3.1c0-1.3-0.4-2.1-1.4-2.9l-15.1-12.8v-26.2
	c0-2.1-1.4-3.4-3.4-3.4h-5.5c-2,0-3.4,1.3-3.4,3.4v15.9l-36-30.3c-4-3.4-8.7-3.4-12.7,0l-63.7,53.4
	C1082.2,1513.5,1081.7,1514.5,1081.7,1515.5z M1170.8,1534.3c0-2.5-1.6-4.1-4.1-4.1h-27.1c-2.5,0-4.2,1.6-4.2,4.1v44.5h-23.3
	c-4.9,0-7.3-2.3-7.3-7.3v-68.1l45.8-38.4c1.6-1.4,3.4-1.6,5.2,0l45.5,38.2v68.3c0,5-2.3,7.3-7.3,7.3h-23.2V1534.3z"/>
<path d="M787.9,1514.3c0,1,0.8,1.8,2,1.8c0.7,0,1.1-0.2,1.6-0.6l11.7-9.9v67.3c0,7.3,3.9,11.1,11.2,11.1h84.3
	c7.3,0,11.2-3.9,11.2-11.1v-67.1l11.5,9.7c0.5,0.4,0.8,0.6,1.5,0.6c1.2,0,2-0.8,2-1.8c0-0.8-0.3-1.3-1-1.9l-14.1-11.8v-26.4
	c0-1.5-1-2.5-2.5-2.5h-4.6c-1.4,0-2.5,1-2.5,2.5v18.4l-38.2-32.2c-3.5-3-7.4-3-10.9,0l-62.2,52.1
	C788.2,1513,787.9,1513.5,787.9,1514.3z M873.7,1533.8c0-2.2-1.4-3.6-3.6-3.6h-27.3c-2.1,0-3.6,1.4-3.6,3.6v46.2h-24
	c-5.6,0-8.1-2.5-8.1-8.1v-69.7l46.5-39c1.8-1.6,3.7-1.9,5.8,0l46.5,39.2v69.6c0,5.6-2.5,8.1-8.1,8.1h-24.2V1533.8z"/>
<path d="M492.7,1513.6c0,0.6,0.5,1.1,1.2,1.1c0.5,0,0.6-0.1,0.9-0.3l12.5-10.5v68.8c0,7,3.6,10.5,10.5,10.5h84
	c7,0,10.5-3.6,10.5-10.5v-68.6l12.1,10.3c0.3,0.2,0.4,0.3,0.9,0.3c0.7,0,1.2-0.5,1.2-1.1c0-0.5-0.2-0.8-0.8-1.4l-13.5-11.4v-26.5
	c0-1.2-0.9-2.1-2.1-2.1h-4.1c-1.1,0-2,0.8-2,2.1v19.6l-39.4-33.2c-3.2-2.8-6.7-2.8-10,0l-61.4,51.5
	C492.9,1512.7,492.7,1513,492.7,1513.6z M576.8,1533.5c0-2-1.3-3.3-3.3-3.3H546c-2,0-3.3,1.3-3.3,3.3v47.2h-24.3
	c-6,0-8.5-2.5-8.5-8.4v-70.6l46.9-39.4c1.9-1.6,3.8-2,6.1,0l47,39.6v70.3c0,6-2.5,8.4-8.5,8.4h-24.7V1533.5z"/>
<path d="M2867.2,1089.4c0,5.2,3.6,8.6,9,8.6c2.3,0,4.8-1,6.9-2.8l1.8-1.5v40c0,9,5.9,14.8,15.6,14.8h66.1c9.7,0,15.5-5.9,15.5-14.8
	v-40l1.8,1.5c2.1,1.8,4.6,2.8,6.9,2.8c5.4,0,9-3.4,9-8.6c0-2.5-1.4-5.4-3.7-7.4l-13.9-11.7v-23.6c0-2.4-1.6-4-4-4h-13.6
	c-2.4,0-4.1,1.5-4.1,4v5.5l-15.1-12.7c-7.1-5.9-16.5-5.9-23.6,0l-50.8,42.6C2868.6,1084.2,2867.2,1086.8,2867.2,1089.4z
	 M2947.2,1101.6c0-2.4-1.6-4-4-4h-19.6c-2.4,0-4.1,1.6-4.1,4v28.7h-12.2c-2.7,0-4.2-1.6-4.2-4.2v-47.7l26.4-22.2
	c2.5-2.1,5.2-2.1,7.9,0l26.3,22.1v47.8c0,2.6-1.6,4.2-4.2,4.2h-12.3V1101.6z"/>
<path d="M2572.4,1089.1c0,4.4,3.1,7.4,7.9,7.4c2.1,0,4.2-0.9,6.1-2.4l2.9-2.4v41.6c0,8.5,5.4,13.9,14.5,13.9h66
	c9.1,0,14.5-5.4,14.5-13.9v-41.7l2.9,2.5c1.9,1.5,4,2.4,6.1,2.4c4.7,0,7.9-2.9,7.9-7.4c0-2.3-1.2-4.7-3.2-6.4l-13.7-11.5v-22.8
	c0-2.3-1.5-3.9-3.9-3.9h-11.6c-2.4,0-4,1.5-4,3.9v6.5l-17.6-14.8c-6.2-5.2-14.6-5.2-20.8,0l-50.8,42.7
	C2573.5,1084.5,2572.4,1086.9,2572.4,1089.1z M2650.6,1101.7c0-2.4-1.5-4-3.9-4h-19.9c-2.4,0-4,1.6-4,4v29.6h-13.4
	c-2.8,0-4.4-1.6-4.4-4.4v-48.5l28.4-23.8c2.2-1.9,4.6-1.9,6.8,0l28.2,23.7v48.6c0,2.8-1.6,4.4-4.4,4.4h-13.4V1101.7z"/>
<path d="M2277.7,1088.7c0,3.6,2.6,6.2,6.6,6.2c1.9,0,3.7-0.9,5.2-2.2l4.1-3.4v43.3c0,7.9,4.9,12.8,13.3,12.8h66.1
	c8.3,0,13.3-4.9,13.3-12.8v-43.5l4.2,3.6c1.5,1.3,3.4,2.2,5.2,2.2c3.9,0,6.6-2.4,6.6-6.2c0-2-0.9-3.9-2.6-5.3l-13.4-11.3v-21.9
	c0-2.3-1.5-3.8-3.8-3.8h-9.4c-2.2,0-3.8,1.5-3.8,3.8v7.7l-20.4-17.1c-5.3-4.5-12.3-4.5-17.7,0l-50.8,42.7
	C2278.6,1084.9,2277.7,1086.9,2277.7,1088.7z M2353.9,1101.7c0-2.3-1.5-3.9-3.9-3.9h-20.2c-2.3,0-3.9,1.5-3.9,3.9v30.7h-14.8
	c-2.9,0-4.5-1.7-4.5-4.6v-49.5l30.5-25.6c1.8-1.6,3.8-1.6,5.7,0l30.3,25.4v49.6c0,2.9-1.6,4.6-4.5,4.6h-14.6V1101.7z"/>
<g id="Semibold-M">
	<path d="M2101.6,1089.2c0-1.4-0.6-2.7-1.7-3.7l-53.5-45.4c-0.9-0.8-2-1.2-3.1-1.2c-1.1,0-2.2,0.4-3.1,1.2l-53.5,45.4
		c-1.1,1-1.7,2.3-1.7,3.7c0,3.3,2.8,4.9,4.9,4.9c1.1,0,2.2-0.4,3.1-1.2l5-4.2v45.9c0,4.5,3.6,8.1,8.1,8.1h19.5
		c4.5,0,8.1-3.6,8.1-8.1v-24.3h19.5v24.3c0,4.5,3.6,8.1,8.1,8.1h19.5c4.5,0,8.1-3.6,8.1-8.1v-45.9l5,4.2c0.9,0.8,2,1.2,3.1,1.2
		C2098.7,1094.1,2101.6,1092.5,2101.6,1089.2z M2078.8,1133.1h-16.2v-24.3c0-4.5-3.6-8.1-8.1-8.1h-22.7c-4.5,0-8.1,3.6-8.1,8.1v24.3
		h-16.2v-51.9c0-0.2-0.1-0.4-0.1-0.6l35.8-30.4l35.7,30.3V1133.1z"/>
</g>
<path d="M1686.8,1088.3c0,2.5,2,4.7,5.1,4.7c1.5,0,2.9-0.8,4.1-1.8l5.6-4.7v45.4c0,7.2,4.3,11.5,11.8,11.5h66.1
	c7.4,0,11.8-4.3,11.8-11.5v-45.7l5.9,4.9c1.2,1,2.5,1.8,4.1,1.8c2.9,0,5.1-1.8,5.1-4.6c0-1.7-0.6-3-1.9-4.1l-13.1-11v-20.8
	c0-2.2-1.4-3.6-3.6-3.6h-6.7c-2.1,0-3.6,1.4-3.6,3.6v9.1l-23.8-20c-4.2-3.6-9.6-3.6-13.9,0l-50.9,42.7
	C1687.5,1085.4,1686.8,1086.9,1686.8,1088.3z M1760.6,1101.8c0-2.3-1.5-3.8-3.8-3.8h-20.5c-2.3,0-3.8,1.5-3.8,3.8v32H1716
	c-3,0-4.7-1.7-4.7-4.8v-50.6l33.2-27.8c1.4-1.2,2.9-1.2,4.3,0l32.8,27.5v50.9c0,3.1-1.7,4.8-4.7,4.8h-16.2V1101.8z"/>
<g id="Regular-M">
	<path d="M1507.3,1091.7c0-0.9-0.4-1.8-1.1-2.4l-54.3-47.9c-0.6-0.5-1.4-0.8-2.1-0.8c-0.8,0-1.5,0.3-2.1,0.8l-54.3,47.9
		c-0.7,0.6-1.1,1.5-1.1,2.4c0,1.8,1.4,3.2,3.2,3.2c0.7,0,1.5-0.3,2.1-0.8l7.5-6.6v45.7c0,5.3,4.3,9.6,9.6,9.6h16
		c5.3,0,9.6-4.3,9.6-9.6v-22.3h19.1v22.3c0,5.3,4.3,9.6,9.6,9.6h16c5.3,0,9.6-4.3,9.6-9.6v-45.7l7.5,6.6c0.6,0.5,1.4,0.8,2.1,0.8
		C1505.8,1094.9,1507.3,1093.5,1507.3,1091.7z M1488.1,1082.1v51.1c0,1.8-1.4,3.2-3.2,3.2h-16c-1.8,0-3.2-1.4-3.2-3.2v-22.3
		c0-3.5-2.9-6.4-6.4-6.4h-19.1c-3.5,0-6.4,2.9-6.4,6.4v22.3c0,1.8-1.4,3.2-3.2,3.2h-16c-1.8,0-3.2-1.4-3.2-3.2v-51.1
		c0-0.1,0-0.1,0-0.2l38.3-33.8l38.3,33.8C1488.2,1082,1488.1,1082.1,1488.1,1082.1z"/>
</g>
<path d="M1120.2,1141.4h65.8c6.5,0,10.2-3.6,10.2-10v-48.8l7.6,6.4c0.8,0.6,1.6,1.2,2.6,1.2c1.8,0,3.2-1.1,3.2-2.9
	c0-1.1-0.4-1.9-1.3-2.6l-12.1-10.2v-20.3c0-1.8-1.2-2.9-2.9-2.9h-4.6c-1.7,0-2.9,1.1-2.9,2.9v11.5l-27.1-22.9
	c-3.3-2.8-7.2-2.8-10.5,0l-49.9,41.8c-0.9,0.7-1.3,1.7-1.3,2.5c0,1.6,1.2,3,3.2,3c1,0,1.9-0.5,2.6-1.2l7.4-6.2v48.7
	C1110,1137.8,1113.7,1141.4,1120.2,1141.4z M1166.9,1101.4c0-2.1-1.3-3.4-3.3-3.4h-20.9c-2.1,0-3.4,1.3-3.4,3.4v33.9h-17.9
	c-3.6,0-5.3-1.8-5.3-5.4v-52.2l35.2-29.5c1.2-1,2.5-1.1,3.9,0l34.9,29.3v52.4c0,3.6-1.8,5.4-5.4,5.4h-17.7V1101.4z"/>
<path d="M823.8,1140.1h65.4c5.8,0,8.9-3.1,8.9-8.9v-51.4l8.6,7.3c0.5,0.3,0.9,0.6,1.5,0.6c1.1,0,1.9-0.7,1.9-1.7
	c0-0.7-0.2-1.2-0.9-1.7l-11.1-9.4v-20.5c0-1.3-0.9-2.1-2.1-2.1h-3.8c-1.2,0-2.1,0.8-2.1,2.1v13.7l-29.2-24.6c-2.8-2.4-6-2.4-8.9,0
	l-48.5,40.7c-0.6,0.5-0.9,1-0.9,1.7c0,0.9,0.7,1.7,1.9,1.7c0.6,0,1-0.3,1.5-0.6l8.7-7.4v51.5C814.8,1137,817.9,1140.1,823.8,1140.1z
	 M869.8,1101c0-1.8-1.1-2.9-2.9-2.9h-21.1c-1.8,0-2.9,1.2-2.9,2.9v35.4h-18.5c-4.2,0-6.1-1.9-6.1-6.1v-53.7l35.9-30.1
	c1.4-1.2,2.8-1.4,4.4,0l35.8,30.2v53.6c0,4.2-1.9,6.1-6.1,6.1h-18.6V1101z"/>
<path d="M527.3,1139.4h65.2c5.5,0,8.3-2.9,8.3-8.3v-52.7l9.2,7.8c0.3,0.2,0.5,0.3,0.9,0.3c0.7,0,1.2-0.5,1.2-1.1
	c0-0.5-0.2-0.8-0.7-1.2l-10.6-9v-20.5c0-1-0.7-1.7-1.7-1.7h-3.3c-1,0-1.7,0.7-1.7,1.7v14.8l-30.2-25.4c-2.5-2.2-5.4-2.2-8,0
	l-47.8,40.1c-0.5,0.4-0.7,0.7-0.7,1.2c0,0.6,0.5,1.1,1.2,1.1c0.4,0,0.6-0.1,0.9-0.3l9.4-8v52.9
	C518.9,1136.6,521.7,1139.4,527.3,1139.4z M573,1100.8c0-1.6-1-2.7-2.6-2.7h-21.2c-1.6,0-2.6,1.1-2.6,2.7v36.3h-18.7
	c-4.5,0-6.5-2-6.5-6.4v-54.4l36.3-30.4c1.4-1.2,2.9-1.5,4.6,0l36.2,30.6v54.2c0,4.5-2,6.4-6.4,6.4h-19V1100.8z"/>
<path d="M2907.5,706h51.8c7.6,0,12.1-4.5,12.1-11.6V663l1.5,1.2c1.6,1.4,3.6,2.1,5.3,2.1c4.2,0,7-2.6,7-6.6c0-2-1.1-4.2-2.9-5.7
	l-10.9-9.1v-18.5c0-1.9-1.2-3.1-3.1-3.1h-10.5c-1.9,0-3.2,1.2-3.2,3.1v4.3l-12-10.1c-5.5-4.6-12.8-4.6-18.3,0l-39.8,33.4
	c-1.8,1.6-2.9,3.7-2.9,5.7c0,4,2.8,6.6,7,6.6c1.8,0,3.7-0.8,5.3-2.1l1.5-1.2v31.4C2895.4,701.5,2900,706,2907.5,706z M2944.2,669.3
	c0-1.9-1.2-3.1-3.1-3.1h-15.4c-1.9,0-3.2,1.2-3.2,3.1v22.6h-9.7c-2.1,0-3.3-1.2-3.3-3.3v-37.4l20.8-17.5c2-1.7,4.1-1.7,6.1,0
	l20.8,17.4v37.5c0,2.1-1.2,3.3-3.3,3.3h-9.7V669.3z"/>
<path d="M2610.8,705h51.8c7.1,0,11.4-4.2,11.4-10.9v-32.5l2.2,1.9c1.5,1.2,3.2,2,4.8,2c3.7,0,6.2-2.3,6.2-5.9c0-1.8-0.9-3.7-2.5-5
	l-10.8-9.1v-17.8c0-1.9-1.2-3.1-3.1-3.1h-9c-1.9,0-3.2,1.2-3.2,3.1v5l-13.7-11.6c-4.9-4.1-11.4-4.1-16.3,0l-39.9,33.5
	c-1.6,1.4-2.5,3.3-2.5,5c0,3.5,2.4,5.9,6.2,5.9c1.6,0,3.4-0.8,4.8-2l2.2-1.8V694C2599.4,700.7,2603.6,705,2610.8,705z M2647.6,669.3
	c0-1.9-1.2-3.1-3.1-3.1h-15.6c-1.9,0-3.1,1.2-3.1,3.1v23.1h-10.6c-2.1,0-3.4-1.2-3.4-3.4v-37.9l22.3-18.7c1.7-1.4,3.5-1.4,5.2,0
	l22.1,18.6v38c0,2.1-1.2,3.4-3.4,3.4h-10.4V669.3z"/>
<path d="M2314,703.8h51.8c6.6,0,10.6-3.9,10.6-10.2V660l3.2,2.7c1.3,1.1,2.7,1.8,4.2,1.8c3.1,0,5.4-2,5.4-5c0-1.7-0.8-3.2-2.1-4.3
	l-10.7-9V629c0-1.9-1.2-3.1-3.1-3.1h-7.5c-1.9,0-3.1,1.2-3.1,3.1v5.7l-15.7-13.2c-4.2-3.6-9.8-3.6-14.1,0l-40,33.6
	c-1.4,1.2-2.1,2.7-2.1,4.2c0,2.9,2.1,5.1,5.4,5.1c1.5,0,3-0.7,4.2-1.8l3-2.5v33.4C2303.4,700,2307.3,703.8,2314,703.8z M2351,669.4
	c0-1.9-1.2-3.1-3.1-3.1h-15.7c-1.9,0-3.2,1.2-3.2,3.1v23.8h-11.6c-2.1,0-3.4-1.3-3.4-3.4v-38.5l23.9-20c1.4-1.2,2.9-1.2,4.3,0
	l23.6,19.8v38.7c0,2.1-1.3,3.4-3.4,3.4H2351V669.4z"/>
<g id="Semibold-S">
	<path d="M2092.1,660.1c0-1.2-0.5-2.3-1.4-3.1l-44.9-38.1c-0.8-0.6-1.7-1-2.6-1s-1.9,0.3-2.6,1l-44.9,38.1c-1,0.8-1.4,2-1.4,3.1
		c0,2.7,2.3,4.1,4.1,4.1c0.9,0,1.9-0.3,2.6-1l4.2-3.5v38.5c0,3.7,3,6.8,6.8,6.8h16.3c3.7,0,6.8-3,6.8-6.8v-20.4h16.3v20.4
		c0,3.7,3,6.8,6.8,6.8h16.3c3.7,0,6.8-3,6.8-6.8v-38.5l4.2,3.5c0.8,0.6,1.7,1,2.6,1C2089.7,664.2,2092.1,662.8,2092.1,660.1z
		 M2073.1,696.8h-13.6v-20.4c0-3.7-3-6.8-6.8-6.8h-19c-3.7,0-6.8,3-6.8,6.8v20.4h-13.6v-43.5c0-0.2-0.1-0.3-0.1-0.5l30-25.5
		l29.9,25.4V696.8z"/>
</g>
<path d="M1720.5,702.4h51.9c6,0,9.6-3.5,9.6-9.3v-35.1l4.3,3.6c1,0.9,2.2,1.6,3.6,1.6c2.4,0,4.3-1.5,4.3-4c0-1.4-0.5-2.6-1.6-3.5
	l-10.6-8.8v-16.3c0-1.9-1.2-3.1-3-3.1h-5.5c-1.9,0-3.1,1.2-3.1,3.1v6.4l-18.1-15.1c-3.4-2.9-7.9-2.9-11.3,0l-40.2,33.8
	c-1.1,0.9-1.7,2.2-1.7,3.4c0,2.1,1.7,4.1,4.4,4.1c1.3,0,2.5-0.7,3.5-1.6l4-3.3v34.8C1710.9,698.9,1714.5,702.4,1720.5,702.4z
	 M1757.7,669.5c0-1.9-1.2-3.1-3.1-3.1h-16c-1.9,0-3.1,1.2-3.1,3.1v24.6h-12.8c-2.2,0-3.5-1.3-3.5-3.5v-39.2l25.8-21.6
	c1-0.9,2.2-0.8,3.2,0l25.4,21.3v39.5c0,2.2-1.3,3.5-3.5,3.5h-12.5V669.5z"/>
<g id="Regular-S">
	<path d="M1494.4,661.9c0-0.7-0.3-1.4-0.8-1.9l-42.1-37.1c-0.5-0.4-1.1-0.6-1.6-0.6c-0.6,0-1.2,0.2-1.6,0.6l-42.1,37.1
		c-0.6,0.5-0.8,1.2-0.8,1.9c0,1.4,1.1,2.5,2.5,2.5c0.6,0,1.2-0.2,1.6-0.6l5.8-5.1v35.4c0,4.1,3.3,7.4,7.4,7.4h12.4
		c4.1,0,7.4-3.3,7.4-7.4v-17.3h14.9v17.3c0,4.1,3.3,7.4,7.4,7.4h12.4c4.1,0,7.4-3.3,7.4-7.4v-35.4l5.8,5.1c0.5,0.4,1.1,0.6,1.6,0.6
		C1493.3,664.4,1494.4,663.3,1494.4,661.9z M1479.6,654.5v39.6c0,1.4-1.1,2.5-2.5,2.5h-12.4c-1.4,0-2.5-1.1-2.5-2.5v-17.3
		c0-2.7-2.2-5-5-5h-14.9c-2.7,0-5,2.2-5,5v17.3c0,1.4-1.1,2.5-2.5,2.5h-12.4c-1.4,0-2.5-1.1-2.5-2.5v-39.6c0-0.1,0-0.1,0-0.2
		l29.7-26.2l29.7,26.2C1479.6,654.4,1479.6,654.4,1479.6,654.5z"/>
</g>
<path d="M1127.2,700.8h51.7c5.3,0,8.3-2.9,8.3-8.2v-37.5l5.7,4.7c0.7,0.6,1.4,1.1,2.3,1.1c1.6,0,2.9-1,2.9-2.6c0-1-0.3-1.7-1.1-2.3
	l-9.8-8.2v-15.9c0-1.6-1-2.5-2.5-2.5h-3.9c-1.5,0-2.5,1-2.5,2.5v8.4l-20.7-17.4c-2.7-2.3-6-2.3-8.7,0l-39.5,33.1
	c-0.8,0.6-1.1,1.5-1.1,2.2c0,1.4,1.1,2.7,2.9,2.7c1,0,1.7-0.5,2.4-1.1l5.4-4.5v37.3C1118.9,697.9,1122,700.8,1127.2,700.8z
	 M1164.1,669.3c0-1.7-1.1-2.8-2.8-2.8H1145c-1.7,0-2.8,1.1-2.8,2.8v26.1h-13.9c-2.6,0-4-1.4-4-4.1v-40.5l27.3-22.9
	c0.9-0.8,2-0.8,2.9,0l27.1,22.8v40.7c0,2.7-1.4,4.1-4,4.1h-13.6V669.3z"/>
<path d="M830.8,699.7h51.3c4.7,0,7.2-2.5,7.2-7.2v-39.8l6.6,5.5c0.4,0.3,0.8,0.6,1.4,0.6c1,0,1.7-0.6,1.7-1.6c0-0.6-0.2-1-0.8-1.5
	l-8.9-7.5v-16c0-1.1-0.7-1.8-1.8-1.8h-3.1c-1,0-1.8,0.7-1.8,1.8v10.4l-22.5-18.9c-2.3-2-4.9-2-7.3,0l-38.2,32.1
	c-0.5,0.5-0.8,0.9-0.8,1.5c0,0.8,0.7,1.6,1.7,1.6c0.6,0,1-0.3,1.4-0.6l6.6-5.5v39.8C823.6,697.1,826.1,699.7,830.8,699.7z
	 M867,668.9c0-1.4-0.9-2.3-2.3-2.3h-16.5c-1.4,0-2.3,0.9-2.3,2.3v27.5h-14.4c-3.2,0-4.6-1.5-4.6-4.6v-41.8l28-23.5
	c1.1-0.9,2.1-1,3.4,0l27.8,23.5v41.8c0,3.2-1.4,4.6-4.6,4.6H867V668.9z"/>
<path d="M534.2,699.1h51.1c4.4,0,6.7-2.3,6.7-6.7v-40.9l7.1,6c0.3,0.2,0.4,0.3,0.8,0.3c0.7,0,1.1-0.4,1.1-1c0-0.4-0.1-0.7-0.6-1.1
	l-8.4-7.1v-16.1c0-0.9-0.6-1.5-1.5-1.5h-2.7c-0.8,0-1.5,0.6-1.5,1.5v11.3l-23.4-19.7c-2.1-1.8-4.3-1.8-6.5,0l-37.6,31.6
	c-0.4,0.3-0.6,0.6-0.6,1c0,0.6,0.4,1,1.1,1c0.4,0,0.6-0.1,0.8-0.3l7.2-6.1v41C527.5,696.8,529.9,699.1,534.2,699.1z M570.1,668.7
	c0-1.3-0.8-2.1-2.1-2.1h-16.6c-1.3,0-2.1,0.8-2.1,2.1v28.2h-14.6c-3.5,0-4.9-1.5-4.9-5v-42.4l28.3-23.8c1.1-0.9,2.2-1.1,3.6,0
	l28.3,23.9v42.3c0,3.5-1.5,5-4.9,5h-14.8V668.7z"/>
</svg>
