<?xml version="1.0" encoding="utf-8"?>
<!-- Generator: Adobe Illustrator 25.2.0, SVG Export Plug-In . SVG Version: 6.00 Build 0)  -->
<svg version="1.1" id="Layer_1" xmlns="http://www.w3.org/2000/svg" xmlns:xlink="http://www.w3.org/1999/xlink" x="0px" y="0px"
	 viewBox="0 0 3300 2200" style="enable-background:new 0 0 3300 2200;" xml:space="preserve">
<style type="text/css">
	.st0{fill:#FFFFFF;}
	.st1{fill:none;stroke:#000000;stroke-width:0.5;}
	.st2{font-family:'Arial-BoldMT';}
	.st3{font-size:12px;}
	.st4{font-family:'ArialMT';}
	.st5{fill:none;stroke:#00AEEF;stroke-width:0.5;}
	.st6{fill:#27AAE1;}
	.st7{fill:none;stroke:#27AAE1;stroke-width:0.5;}
</style>
<g id="Notes">
	<rect id="artboard" class="st0" width="3300" height="2200"/>
	<line class="st1" x1="263" y1="292" x2="3036" y2="292"/>
	<text transform="matrix(1 0 0 1 263 322)" class="st2 st3">Weight/Scale Variations</text>
	<text transform="matrix(1 0 0 1 536.0361 322)" class="st4 st3">Ultralight</text>
	<text transform="matrix(1 0 0 1 844.7501 322)" class="st4 st3">Thin</text>
	<text transform="matrix(1 0 0 1 1140.1193 322)" class="st4 st3">Light</text>
	<text transform="matrix(1 0 0 1 1428.8282 322)" class="st4 st3">Regular</text>
	<text transform="matrix(1 0 0 1 1725.2202 322)" class="st4 st3">Medium</text>
	<text transform="matrix(1 0 0 1 2018.2563 322)" class="st4 st3">Semibold</text>
	<text transform="matrix(1 0 0 1 2327.9712 322)" class="st4 st3">Bold</text>
	<text transform="matrix(1 0 0 1 2619.6831 322)" class="st4 st3">Heavy</text>
	<text transform="matrix(1 0 0 1 2918.728 322)" class="st4 st3">Black</text>
	<line class="st1" x1="263" y1="1903" x2="3036" y2="1903"/>
	<g transform="matrix(1 0 0 1 263 1933)">
		<path d="M9.2,0.8c4.3,0,7.9-3.6,7.9-7.9c0-4.3-3.6-7.9-7.9-7.9c-4.3,0-7.9,3.6-7.9,7.9C1.4-2.7,5,0.8,9.2,0.8z M9.2-0.7
			c-3.5,0-6.4-2.8-6.4-6.4c0-3.6,2.8-6.4,6.4-6.4c3.6,0,6.4,2.8,6.4,6.4C15.7-3.5,12.8-0.7,9.2-0.7z M6.4-6.3h2.1v2.1
			c0,0.4,0.3,0.7,0.7,0.7c0.4,0,0.7-0.3,0.7-0.7v-2.1h2.1c0.4,0,0.7-0.3,0.7-0.7c0-0.4-0.3-0.7-0.7-0.7H10v-2.1
			c0-0.4-0.3-0.8-0.7-0.8c-0.4,0-0.7,0.3-0.7,0.8v2.1H6.4C5.9-7.8,5.6-7.5,5.6-7C5.6-6.6,5.9-6.3,6.4-6.3z"/>
	</g>
	<g transform="matrix(1 0 0 1 281.506 1933)">
		<path d="M11.7,2.9c5.4,0,10-4.5,10-10c0-5.4-4.5-10-10-10c-5.4,0-10,4.5-10,10C1.7-1.6,6.3,2.9,11.7,2.9z M11.7,1.2
			c-4.6,0-8.3-3.7-8.3-8.3c0-4.6,3.7-8.3,8.3-8.3c4.6,0,8.3,3.7,8.3,8.3C20-2.4,16.3,1.2,11.7,1.2z M8-6.2h2.9v2.9
			c0,0.5,0.3,0.8,0.8,0.8c0.5,0,0.8-0.3,0.8-0.8v-2.9h2.9c0.5,0,0.8-0.3,0.8-0.8c0-0.5-0.3-0.8-0.8-0.8h-2.9v-2.9
			c0-0.5-0.3-0.8-0.8-0.8c-0.5,0-0.8,0.3-0.8,0.8v2.9H8C7.5-7.9,7.1-7.5,7.1-7C7.1-6.6,7.5-6.2,8-6.2z"/>
	</g>
	<g transform="matrix(1 0 0 1 304.924 1933)">
		<path d="M15,5.7c7,0,12.7-5.8,12.7-12.7c0-7-5.8-12.7-12.7-12.7C8-19.8,2.3-14,2.3-7.1C2.3-0.1,8,5.7,15,5.7z M15,3.8
			C8.9,3.8,4.1-1,4.1-7.1c0-6,4.8-10.9,10.9-10.9c6,0,10.9,4.9,10.9,10.9C25.9-1,21,3.8,15,3.8z M10.1-6.1h4v4
			c0,0.5,0.4,0.9,0.9,0.9c0.5,0,0.9-0.4,0.9-0.9v-4h4c0.5,0,0.9-0.4,0.9-0.9c0-0.5-0.4-0.9-0.9-0.9h-4v-4c0-0.6-0.4-0.9-0.9-0.9
			c-0.5,0-0.9,0.4-0.9,0.9v4h-4C9.5-7.9,9.1-7.6,9.1-7C9.1-6.5,9.5-6.1,10.1-6.1z"/>
	</g>
	<text transform="matrix(1 0 0 1 263 1953)" class="st2 st3">Design Variations</text>
	<text transform="matrix(1 0 0 1 263 1971)" class="st4 st3">Symbols are supported in up to nine weights and three scales.</text>
	<text transform="matrix(1 0 0 1 263 1989)" class="st4 st3">For optimal layout with text and other symbols, vertically align</text>
	<text transform="matrix(1 0 0 1 263 2007)" class="st4 st3">symbols with the adjacent text.</text>
	<line class="st5" x1="776" y1="1919" x2="776" y2="1933"/>
	<g transform="matrix(1 0 0 1 776 1933)">
		<path d="M3.3,0.1c0.5,0,0.8-0.2,1-0.7l1.3-3.5h5.8l1.3,3.5c0.2,0.5,0.4,0.7,0.9,0.7c0.5,0,0.8-0.3,0.8-0.8c0-0.2,0-0.3-0.1-0.5
			L9.7-13.4C9.4-14,9-14.3,8.4-14.3c-0.6,0-1,0.3-1.2,0.9L2.6-1.2C2.5-1,2.5-0.8,2.5-0.7C2.5-0.2,2.8,0.1,3.3,0.1z M6-5.5l2.4-6.6h0
			l2.4,6.6H6z"/>
	</g>
	<line class="st5" x1="792.8" y1="1919" x2="792.8" y2="1933"/>
	<text transform="matrix(1 0 0 1 776 1953)" class="st2 st3">Margins</text>
	<text transform="matrix(1 0 0 1 776 1971)" class="st4 st3">Leading and trailing margins on the left and right side of each symbol</text>
	<text transform="matrix(1 0 0 1 776 1989)" class="st4 st3">can be adjusted by modifying the x-location of the margin guidelines.</text>
	<text transform="matrix(1 0 0 1 776 2007)" class="st4 st3">Modifications are automatically applied proportionally to all</text>
	<text transform="matrix(1 0 0 1 776 2025)" class="st4 st3">scales and weights.</text>
	<g transform="matrix(1 0 0 1 1289 1933)">
		<path d="M2.8,1.9l1.7,1.7c0.9,0.9,1.8,0.8,2.8-0.2L17.5-7.9c0.3,0.1,0.5,0.1,0.8,0L19.4-8l0.7,0.7l0,0.6c0,0.5,0.1,0.9,0.6,1.4
			l0.8,0.7c0.5,0.5,1.1,0.5,1.6,0l2.9-2.9c0.5-0.5,0.4-1.1,0-1.5L25-9.9c-0.5-0.5-0.8-0.6-1.3-0.6l-0.6,0l-0.6-0.6l0.2-1.1
			c0.1-0.6,0-1-0.6-1.6L19.9-16c-3.3-3.3-7.8-3.2-10.7-0.4c-0.4,0.4-0.4,1-0.2,1.4c0.2,0.4,0.7,0.6,1.3,0.4c1.5-0.3,3-0.4,4.4,0.5
			l-0.6,1.5c-0.2,0.5-0.2,0.9-0.1,1.2L3-0.9C2.1,0,2,1,2.8,1.9z M10.8-16c2.4-1.8,5.7-1.5,7.9,0.8l2.4,2.4c0.2,0.2,0.3,0.4,0.2,0.8
			L21-10.5l1.5,1.5l1-0.1c0.3,0,0.3,0,0.5,0.2l0.6,0.6l-2.4,2.4l-0.6-0.6c-0.2-0.2-0.2-0.3-0.2-0.5l0.1-1L20-9.5l-1.5,0.3
			c-0.3,0.1-0.5,0-0.7-0.2l-2-2c-0.3-0.2-0.3-0.4-0.1-0.8l0.9-2.1c-1.6-1.5-3.6-2.1-5.6-1.5C10.7-15.7,10.6-15.8,10.8-16z M5.3,2.3
			L4.1,1.1C3.6,0.7,3.7,0.3,4.1,0L15-10.2l1.5,1.5l-10,11C6.1,2.7,5.7,2.8,5.3,2.3z"/>
	</g>
	<text transform="matrix(1 0 0 1 1289 1953)" class="st2 st3">Exporting</text>
	<text transform="matrix(1 0 0 1 1289 1971)" class="st4 st3">Symbols should be outlined when exporting to ensure the</text>
	<text transform="matrix(1 0 0 1 1289 1989)" class="st4 st3">design is preserved when submitting to Xcode.</text>
	<text id="template-version" transform="matrix(1 0 0 1 2958.8496 1933)" class="st4 st3">Template v.2.0</text>
	<text transform="matrix(1 0 0 1 2878.5762 1951)" class="st4 st3">Requires Xcode 12 or greater</text>
	<text transform="matrix(1 0 0 1 2891.9121 1969)" class="st4 st3">Generated from gearshape</text>
	<text transform="matrix(1 0 0 1 2921.9238 1987)" class="st4 st3">Typeset at 100 points</text>
	<text transform="matrix(1 0 0 1 263 726)" class="st4 st3">Small</text>
	<text transform="matrix(1 0 0 1 263 1156)" class="st4 st3">Medium</text>
	<text transform="matrix(1 0 0 1 263 1586)" class="st4 st3">Large</text>
</g>
<g id="Guides">
	<g id="H-reference" transform="matrix(1 0 0 1 339 696)">
		<path class="st6" d="M1,0h2.7L13-24.5h32.8L55.1,0h2.6L30.6-70.5h-2.5L1,0z M29.3-67.1L29.3-67.1l15.5,40.4h-31L29.3-67.1z"/>
	</g>
	<line id="Baseline-S" class="st7" x1="263" y1="696" x2="3036" y2="696"/>
	<line id="Capline-S" class="st7" x1="263" y1="625.5" x2="3036" y2="625.5"/>
	<g id="H-reference_1_" transform="matrix(1 0 0 1 339 1126)">
		<path class="st6" d="M1,0h2.7L13-24.5h32.8L55.1,0h2.6L30.6-70.5h-2.5L1,0z M29.3-67.1L29.3-67.1l15.5,40.4h-31L29.3-67.1z"/>
	</g>
	<line id="Baseline-M" class="st7" x1="263" y1="1126" x2="3036" y2="1126"/>
	<line id="Capline-M" class="st7" x1="263" y1="1055.5" x2="3036" y2="1055.5"/>
	<g id="H-reference_2_" transform="matrix(1 0 0 1 339 1556)">
		<path class="st6" d="M1,0h2.7L13-24.5h32.8L55.1,0h2.6L30.6-70.5h-2.5L1,0z M29.3-67.1L29.3-67.1l15.5,40.4h-31L29.3-67.1z"/>
	</g>
	<line id="Baseline-L" class="st7" x1="263" y1="1556" x2="3036" y2="1556"/>
	<line id="Capline-L" class="st7" x1="263" y1="1485.5" x2="3036" y2="1485.5"/>
	<line id="left-margin" class="st5" x1="1388.9" y1="1030.8" x2="1388.9" y2="1150.1"/>
	<line id="right-margin" class="st5" x1="1510.8" y1="1030.8" x2="1510.8" y2="1150.1"/>
</g>
<path d="M2926.9,1592.7h12.9c6.5,0,11.9-4.2,13.3-10.4l2.1-8.9l0.3-0.1l7.8,4.8c5.5,3.3,12.2,2.4,16.7-2.2l8.9-8.8
	c4.6-4.8,5.4-11.4,2.1-16.7l-4.8-7.7l0.1-0.3l8.8-2.1c6.1-1.6,10.3-6.9,10.3-13.3v-12.3c0-6.4-4.1-11.8-10.3-13.3l-8.7-2.1l-0.1-0.3
	l4.8-7.7c3.4-5.3,2.5-11.9-2.1-16.7l-8.9-8.9c-4.5-4.6-11.2-5.6-16.7-2.2l-7.8,4.8l-0.3-0.1l-2.1-8.9c-1.4-6.2-6.7-10.4-13.3-10.4
	h-12.9c-6.5,0-11.8,4.3-13.3,10.4l-2.1,8.9l-0.4,0.1l-7.8-4.8c-5.4-3.3-12.1-2.4-16.6,2.2l-8.9,8.9c-4.6,4.8-5.5,11.4-2.1,16.7
	l4.8,7.7l-0.1,0.3l-8.8,2.1c-6.2,1.6-10.2,6.9-10.2,13.3v12.3c0,6.4,4.1,11.8,10.2,13.3l8.8,2.1l0.1,0.3l-4.8,7.7
	c-3.4,5.3-2.5,11.9,2.1,16.7l8.9,8.8c4.5,4.6,11.2,5.6,16.7,2.2l7.8-4.8l0.3,0.1l2.1,8.9C2915.1,1588.5,2920.4,1592.7,2926.9,1592.7
	z M2930.4,1575.5c-0.9,0-1.3-0.5-1.5-1.3l-3.6-15.2c-4.6-0.8-9.2-2.8-13.5-5.6l-13.4,8.2c-0.6,0.4-1.3,0.4-2-0.1l-4.2-4.2
	c-0.7-0.6-0.5-1.3-0.2-2l8.3-13.4c-2.7-4.2-4.6-8.7-5.4-13.2l-15.2-3.6c-0.8-0.1-1.3-0.5-1.3-1.5v-5.7c0-1,0.5-1.3,1.3-1.5l15.2-3.6
	c0.9-4.6,2.7-9.2,5.4-13.3l-8.3-13.4c-0.4-0.6-0.5-1.3,0.1-2l4.2-4.2c0.6-0.6,1.2-0.6,2-0.2l13.3,8.2c3.3-2.4,8.6-4.6,13.5-5.7
	l3.6-15.2c0.1-0.8,0.5-1.2,1.5-1.2h6c1,0,1.4,0.4,1.5,1.2l3.6,15.2c4.8,0.9,9.4,2.9,13.5,5.6l13.2-8c0.7-0.4,1.3-0.5,2,0.1l4.3,4.2
	c0.6,0.7,0.5,1.3,0.1,2l-8.2,13.2c2.6,4.1,4.5,8.7,5.4,13.2l15.2,3.7c0.8,0.1,1.2,0.5,1.2,1.5v5.7c0,1-0.4,1.4-1.2,1.5l-15.3,3.6
	c-0.8,4.4-2.7,9.1-5.4,13.2l8.2,13.3c0.4,0.6,0.5,1.3-0.1,1.9l-4.2,4.2c-0.7,0.7-1.3,0.6-2,0.2l-13.2-8.1c-4.4,2.8-8.4,4.6-13.5,5.6
	l-3.6,15.2c-0.1,0.8-0.5,1.3-1.5,1.3H2930.4z M2933.4,1544.3c12.9,0,23.5-10.6,23.5-23.6c0-12.9-10.6-23.4-23.5-23.4
	c-12.9,0-23.6,10.5-23.6,23.4C2909.8,1533.7,2920.5,1544.3,2933.4,1544.3z M2933.4,1529.6c-4.8,0-8.8-4-8.8-8.8c0-4.8,4-8.7,8.8-8.7
	c4.7,0,8.6,4,8.6,8.7C2942,1525.6,2938.1,1529.6,2933.4,1529.6z"/>
<path d="M2630.2,1591.5h12.9c6.1,0,10.9-3.9,12.3-9.6l2.2-9.7l0.9-0.3l8.4,5.2c5.1,3.1,11.2,2.3,15.5-2l8.9-8.9
	c4.3-4.4,5.1-10.5,2-15.5l-5.2-8.3l0.3-0.8l9.6-2.2c5.7-1.5,9.5-6.3,9.5-12.3v-12.4c0-6-3.8-10.9-9.5-12.3l-9.5-2.3l-0.3-0.9
	l5.2-8.3c3.1-5,2.4-11-2-15.5l-8.9-8.9c-4.2-4.2-10.4-5.1-15.4-2l-8.4,5.1l-0.9-0.3l-2.2-9.7c-1.4-5.8-6.2-9.6-12.3-9.6h-12.9
	c-6.1,0-10.9,3.9-12.3,9.6l-2.2,9.7l-0.9,0.3l-8.4-5.1c-5.1-3.1-11.2-2.2-15.4,2l-8.9,8.9c-4.3,4.5-5.1,10.5-1.9,15.5l5.2,8.3
	l-0.3,0.9l-9.5,2.3c-5.8,1.4-9.5,6.3-9.5,12.3v12.4c0,6,3.8,10.9,9.5,12.3l9.6,2.2l0.3,0.8l-5.2,8.3c-3.1,5-2.3,11,2,15.5l8.9,8.9
	c4.2,4.3,10.4,5.1,15.4,2l8.4-5.2l0.9,0.3l2.2,9.7C2619.3,1587.6,2624.2,1591.5,2630.2,1591.5z M2633.1,1576.4
	c-1.1,0-1.5-0.5-1.7-1.4l-3.6-15.2c-4.4-0.8-8.7-2.7-12.6-5.2l-13.4,8.3c-0.7,0.5-1.5,0.4-2.2-0.2l-5-5c-0.7-0.7-0.6-1.4-0.2-2.1
	l8.3-13.4c-2.4-3.8-4.2-8.1-5-12.4l-15.3-3.6c-0.9-0.1-1.4-0.6-1.4-1.7v-6.9c0-1.1,0.5-1.5,1.4-1.7l15.3-3.6c0.9-4.3,2.7-8.7,5-12.5
	l-8.3-13.4c-0.5-0.7-0.6-1.5,0.1-2.2l5.1-5c0.7-0.6,1.4-0.7,2.2-0.2l13.3,8.2c3.2-2.1,8.1-4.2,12.6-5.2l3.7-15.3
	c0.1-0.9,0.6-1.4,1.7-1.4h7.2c1,0,1.5,0.5,1.7,1.4l3.7,15.3c4.5,0.9,8.8,2.8,12.6,5.2l13.2-8.1c0.8-0.5,1.5-0.5,2.2,0.2l5,5
	c0.7,0.7,0.7,1.4,0.2,2.2l-8.2,13.3c2.3,3.7,4.1,8.1,5,12.4l15.3,3.7c0.9,0.2,1.4,0.6,1.4,1.7v6.9c0,1.1-0.5,1.5-1.4,1.7l-15.3,3.7
	c-0.8,4.2-2.6,8.6-5,12.3l8.2,13.3c0.5,0.7,0.5,1.5-0.2,2.2l-5,5c-0.7,0.7-1.4,0.7-2.2,0.2l-13.2-8.2c-4,2.5-7.8,4.2-12.6,5.2
	l-3.7,15.2c-0.1,0.9-0.6,1.4-1.7,1.4H2633.1z M2636.7,1544.4c13,0,23.6-10.6,23.6-23.7c0-12.9-10.6-23.5-23.6-23.5
	s-23.7,10.6-23.7,23.5C2613,1533.8,2623.7,1544.4,2636.7,1544.4z M2636.7,1531.2c-5.7,0-10.4-4.7-10.4-10.4
	c0-5.7,4.7-10.4,10.4-10.4c5.6,0,10.3,4.7,10.3,10.4C2646.9,1526.5,2642.3,1531.2,2636.7,1531.2z"/>
<path d="M2333.6,1590.1h12.8c5.6,0,9.9-3.5,11.2-8.8l2.4-10.4l1.5-0.5l9.1,5.6c4.7,2.9,10.2,2.1,14.1-1.8l8.9-8.9
	c4-4,4.6-9.5,1.8-14.1l-5.7-9l0.5-1.4l10.4-2.5c5.3-1.3,8.7-5.7,8.7-11.2v-12.4c0-5.5-3.4-9.9-8.7-11.2l-10.4-2.5l-0.6-1.5l5.7-9
	c2.9-4.6,2.2-10.1-1.7-14.2l-8.9-8.8c-3.9-3.9-9.4-4.7-14.1-1.8l-9.1,5.6l-1.6-0.6l-2.4-10.4c-1.3-5.3-5.6-8.8-11.2-8.8h-12.8
	c-5.5,0-9.9,3.5-11.2,8.8l-2.4,10.4l-1.6,0.6l-9.1-5.6c-4.7-2.8-10.3-2.1-14.1,1.8l-8.9,8.8c-4,4.1-4.6,9.6-1.7,14.2l5.7,9l-0.6,1.5
	l-10.3,2.5c-5.4,1.3-8.7,5.7-8.7,11.2v12.4c0,5.5,3.5,9.9,8.7,11.2l10.4,2.5l0.5,1.4l-5.7,9c-2.9,4.6-2.2,10.1,1.8,14.1l8.9,8.9
	c3.9,3.9,9.4,4.7,14.1,1.8l9.1-5.6l1.5,0.5l2.4,10.4C2323.6,1586.6,2328,1590.1,2333.6,1590.1z M2335.8,1577.3
	c-1.2,0-1.7-0.5-1.9-1.6l-3.6-15.3c-4.1-0.9-8.2-2.5-11.6-4.7l-13.4,8.3c-0.9,0.5-1.7,0.4-2.5-0.3l-5.9-5.9
	c-0.8-0.8-0.8-1.6-0.2-2.4l8.3-13.4c-2-3.4-3.7-7.4-4.6-11.4l-15.4-3.6c-1-0.2-1.5-0.7-1.5-1.9v-8.3c0-1.2,0.5-1.7,1.5-1.9l15.3-3.6
	c0.9-4.2,2.7-8.3,4.6-11.5l-8.3-13.4c-0.6-0.9-0.6-1.8,0.2-2.5l6-5.8c0.8-0.8,1.6-0.9,2.5-0.3l13.3,8.2c3-1.9,7.5-3.8,11.7-4.7
	l3.6-15.3c0.2-1,0.7-1.6,1.9-1.6h8.5c1.1,0,1.7,0.5,1.9,1.6l3.7,15.4c4.2,0.9,8.2,2.7,11.6,4.7l13.3-8.2c1-0.6,1.7-0.5,2.5,0.3
	l6,5.8c0.8,0.8,0.8,1.6,0.2,2.5l-8.3,13.3c1.9,3.2,3.7,7.3,4.6,11.4l15.3,3.7c1,0.2,1.6,0.7,1.6,1.9v8.3c0,1.2-0.5,1.7-1.6,1.9
	l-15.4,3.7c-0.9,4-2.6,8.1-4.6,11.4l8.3,13.3c0.5,0.9,0.6,1.7-0.2,2.4l-5.9,5.9c-0.8,0.8-1.6,0.9-2.5,0.3l-13.3-8.2
	c-3.5,2.2-7.2,3.8-11.6,4.7l-3.7,15.3c-0.2,1-0.7,1.6-1.9,1.6H2335.8z M2340,1544.6c13,0,23.8-10.7,23.8-23.8
	c0-13-10.7-23.7-23.8-23.7c-13.1,0-23.8,10.7-23.8,23.7C2316.2,1533.8,2326.9,1544.6,2340,1544.6z M2340,1533.1
	c-6.7,0-12.3-5.6-12.3-12.3c0-6.6,5.6-12.2,12.3-12.2c6.6,0,12.1,5.5,12.1,12.2C2352.1,1527.4,2346.6,1533.1,2340,1533.1z"/>
<path d="M1740.2,1588.4h12.8c4.9,0,8.7-3,9.8-7.8l2.7-11.4l2.2-0.8l10,6.2c4.2,2.6,9,2.1,12.5-1.5l8.8-8.8c3.6-3.6,4.2-8.3,1.5-12.5
	l-6.2-9.9l0.8-2.1l11.4-2.7c4.7-1.1,7.8-4.9,7.8-9.8v-12.5c0-4.9-3-8.7-7.8-9.9l-11.3-2.7l-0.8-2.2l6.2-9.9c2.6-4.2,2-8.9-1.5-12.5
	l-8.8-8.8c-3.5-3.5-8.3-4.2-12.5-1.5l-10,6.1l-2.3-0.8l-2.7-11.5c-1.1-4.8-4.9-7.8-9.8-7.8h-12.8c-4.9,0-8.7,3-9.8,7.8l-2.7,11.5
	l-2.3,0.8l-10-6.1c-4.2-2.6-9-2-12.4,1.5l-8.8,8.8c-3.6,3.6-4.2,8.3-1.5,12.5l6.2,9.9l-0.8,2.2l-11.3,2.7c-4.8,1.2-7.8,5-7.8,9.9
	v12.5c0,4.9,3,8.7,7.8,9.8l11.4,2.7l0.8,2.1l-6.2,9.9c-2.7,4.2-2.1,8.9,1.5,12.5l8.9,8.8c3.5,3.5,8.3,4.1,12.5,1.5l10-6.2l2.2,0.8
	l2.7,11.4C1731.5,1585.4,1735.2,1588.4,1740.2,1588.4z M1741.5,1578.4c-1.3,0-2-0.6-2.1-1.8l-3.7-15.4c-3.8-0.9-7.4-2.4-10.4-4.2
	l-13.5,8.3c-1,0.6-1.9,0.5-2.8-0.4l-7-7c-0.9-0.8-0.9-1.8-0.3-2.8l8.3-13.5c-1.6-2.8-3.2-6.4-4.1-10.2l-15.4-3.6
	c-1.2-0.2-1.8-0.9-1.8-2.1v-9.9c0-1.3,0.6-1.9,1.8-2.2l15.4-3.6c1-4,2.7-7.7,4.1-10.3l-8.3-13.4c-0.6-1.1-0.6-2,0.2-2.9l7-6.9
	c0.9-0.9,1.8-1,2.9-0.4l13.4,8.3c2.8-1.6,6.7-3.2,10.4-4.2l3.7-15.4c0.2-1.1,0.9-1.7,2.1-1.7h10.1c1.3,0,2,0.5,2.1,1.7l3.7,15.5
	c3.9,1,7.4,2.5,10.3,4.2l13.4-8.3c1.1-0.6,2-0.5,2.9,0.3l7,6.9c0.9,0.9,0.9,1.8,0.2,2.8l-8.3,13.4c1.4,2.6,3.1,6.3,4.1,10.3
	l15.4,3.6c1.2,0.3,1.8,0.9,1.8,2.2v9.9c0,1.3-0.6,1.9-1.8,2.1l-15.4,3.6c-0.9,3.8-2.5,7.4-4.1,10.2l8.3,13.5c0.6,1,0.6,1.9-0.3,2.8
	l-7,7c-0.9,0.9-1.9,1-2.8,0.3l-13.4-8.3c-2.9,1.8-6.4,3.2-10.3,4.2l-3.7,15.4c-0.2,1.2-0.8,1.8-2.1,1.8H1741.5z M1746.6,1544.7
	c13.1,0,23.9-10.8,23.9-24c0-13.1-10.8-23.9-23.9-23.9c-13.2,0-24,10.8-24,23.9C1722.6,1533.9,1733.4,1544.7,1746.6,1544.7z
	 M1746.6,1535.2c-8,0-14.5-6.5-14.5-14.5c0-7.9,6.5-14.4,14.5-14.4c7.8,0,14.3,6.5,14.3,14.4
	C1760.9,1528.7,1754.4,1535.2,1746.6,1535.2z"/>
<path d="M1146.8,1586.6h12.7c4.2,0,7.2-2.4,8.3-6.7l2.8-12.3l3.5-1.3l10.7,6.7c3.7,2.3,7.5,1.9,10.5-1.2l8.9-8.8
	c3-3,3.5-6.9,1.2-10.6l-6.7-10.6l1.3-3.5l12.3-2.8c4.2-1,6.7-4.1,6.7-8.3v-12.5c0-4.2-2.4-7.3-6.7-8.3l-12.2-2.9l-1.3-3.5l6.7-10.6
	c2.3-3.7,1.9-7.5-1.2-10.6l-8.8-8.9c-3-3-6.9-3.4-10.5-1.1l-10.7,6.7l-3.6-1.4l-2.8-12.3c-1-4.3-4-6.7-8.3-6.7h-12.7
	c-4.2,0-7.3,2.4-8.3,6.7l-2.8,12.3l-3.6,1.4l-10.7-6.7c-3.7-2.3-7.6-1.9-10.5,1.1l-8.9,8.9c-3.1,3.1-3.5,6.9-1.2,10.6l6.7,10.6
	l-1.4,3.5l-12.2,2.9c-4.2,1-6.7,4.1-6.7,8.3v12.5c0,4.2,2.4,7.3,6.7,8.3l12.3,2.8l1.3,3.5l-6.7,10.6c-2.3,3.7-1.9,7.6,1.2,10.6
	l8.8,8.8c3,3,6.9,3.5,10.5,1.2l10.7-6.7l3.5,1.3l2.8,12.3C1139.5,1584.1,1142.6,1586.6,1146.8,1586.6z M1147.5,1580.1
	c-1.7,0-2.6-0.8-3-2.4l-3.6-15.2c-3.2-0.9-6.4-2.1-8.9-3.5l-13.2,8.3c-1.4,0.9-2.7,0.7-4-0.5l-7.8-7.8c-1.2-1.2-1.3-2.4-0.4-3.9
	l8.2-13.2c-1.2-2.4-2.5-5.7-3.4-8.9l-15.2-3.5c-1.6-0.3-2.4-1.3-2.4-3v-11.1c0-1.8,0.8-2.7,2.4-3l15.2-3.5c0.9-3.4,2.4-6.6,3.4-8.9
	l-8.2-13.2c-0.9-1.5-0.8-2.7,0.4-4l7.8-7.8c1.3-1.2,2.5-1.4,4-0.5l13.1,8.2c2.5-1.2,5.8-2.5,9-3.5l3.5-15.2c0.3-1.6,1.3-2.4,3-2.4
	h11.3c1.8,0,2.7,0.7,3,2.4l3.6,15.2c3.4,0.9,6.4,2.2,8.9,3.5l13.1-8.2c1.5-0.9,2.7-0.7,4,0.5l7.8,7.8c1.3,1.2,1.4,2.5,0.4,4
	l-8.2,13.2c1.1,2.3,2.6,5.5,3.5,8.9l15.2,3.5c1.6,0.3,2.4,1.3,2.4,3v11.1c0,1.8-0.8,2.7-2.4,3l-15.2,3.5c-0.9,3.3-2.2,6.4-3.5,8.9
	l8.3,13.2c0.9,1.5,0.8,2.7-0.4,3.9l-7.8,7.8c-1.2,1.2-2.5,1.4-4,0.5l-13.2-8.3c-2.4,1.3-5.6,2.6-8.9,3.5l-3.6,15.2
	c-0.3,1.7-1.2,2.4-3,2.4H1147.5z M1153.2,1544.9c13.2,0,24-10.9,24-24.1c0-13.1-10.8-24-24-24s-24.2,10.9-24.2,24
	C1129,1534,1140,1544.9,1153.2,1544.9z M1153.2,1538.4c-9.7,0-17.7-8-17.7-17.7c0-9.5,8.1-17.6,17.7-17.6c9.5,0,17.5,8.1,17.5,17.6
	C1170.7,1530.4,1162.7,1538.4,1153.2,1538.4z"/>
<path d="M850.1,1585.4h12.7c3.7,0,6.2-2.1,7.1-6l2.9-12.7l4.6-1.7l11.1,7c3.3,2.1,6.5,1.8,9.2-0.9l8.9-8.9c2.7-2.7,3.1-5.9,0.9-9.3
	l-7-11l1.8-4.7l12.7-2.9c3.9-0.9,6-3.4,6-7.2v-12.6c0-3.8-2-6.2-6-7.1l-12.7-3l-1.7-4.7l7-11c2.1-3.4,1.8-6.6-0.9-9.3l-8.9-8.9
	c-2.6-2.6-5.9-3-9.2-0.9l-11.1,7l-4.6-1.8l-2.9-12.7c-0.9-4-3.4-6-7.1-6h-12.7c-3.7,0-6.2,2-7.1,6l-2.9,12.7l-4.7,1.8l-11.1-7
	c-3.3-2.1-6.5-1.8-9.2,0.9l-8.9,8.9c-2.7,2.7-3.1,5.9-0.9,9.3l7,11l-1.8,4.7l-12.6,3c-3.9,0.9-6,3.4-6,7.1v12.6c0,3.8,2.1,6.2,6,7.2
	l12.6,2.9l1.7,4.7l-7,11c-2.1,3.4-1.8,6.6,0.9,9.3l8.9,8.9c2.6,2.7,5.9,3,9.2,0.9l11.1-7l4.7,1.7l2.9,12.7
	C843.8,1583.3,846.3,1585.4,850.1,1585.4z M850.6,1581.5c-2.2,0-3.5-1.1-3.9-3.2l-3.4-14.9c-2.8-0.8-5.7-1.9-8-3l-12.8,8.1
	c-1.8,1.2-3.6,1-5.1-0.6l-8.2-8.2c-1.6-1.6-1.7-3.2-0.5-5.1l8.1-12.8c-0.9-2.3-2.1-5.2-2.9-8l-14.9-3.4c-2.1-0.4-3.2-1.7-3.2-4V1515
	c0-2.2,1.1-3.5,3.2-4l14.9-3.4c0.8-2.8,2-5.7,2.9-8l-8.1-12.9c-1.2-1.9-1-3.5,0.5-5.1l8.2-8.1c1.6-1.6,3.3-1.8,5.1-0.6l12.8,8.1
	c2.4-1,5.3-2.1,8.1-3l3.4-14.8c0.4-2.1,1.7-3.2,3.9-3.2h11.7c2.2,0,3.5,1,3.9,3.2l3.4,14.9c2.9,0.8,5.7,1.9,8,2.9l12.8-8.1
	c1.9-1.2,3.6-1,5.2,0.6l8.1,8.1c1.6,1.6,1.8,3.2,0.5,5.1l-8.1,12.9c1.1,2.2,2.2,5.1,3,8l14.8,3.4c2.1,0.4,3.2,1.7,3.2,4v11.6
	c0,2.2-1.1,3.5-3.2,4l-14.9,3.4c-0.8,2.8-1.9,5.7-3,8l8.1,12.8c1.2,1.9,1.1,3.5-0.5,5.1l-8.1,8.2c-1.6,1.6-3.3,1.8-5.2,0.6
	l-12.8-8.1c-2.3,1.1-5,2.1-8,3l-3.4,14.9c-0.4,2.2-1.7,3.2-3.9,3.2H850.6z M856.5,1544.9c13.2,0,24.1-10.9,24.1-24.2
	c0-13.1-10.9-24.1-24.1-24.1c-13.2,0-24.2,10.9-24.2,24.1C832.3,1534,843.2,1544.9,856.5,1544.9z M856.5,1541
	c-11,0-20.3-9.2-20.3-20.3c0-10.9,9.3-20.2,20.3-20.2c11,0,20.2,9.3,20.2,20.2C876.7,1531.8,867.5,1541,856.5,1541z"/>
<path d="M553.4,1584.8h12.7c3.5,0,5.7-1.8,6.5-5.6l3-12.9l5.2-2l11.3,7.2c3.1,2.1,6,1.8,8.5-0.7l8.9-8.9c2.6-2.5,2.9-5.4,0.8-8.6
	l-7.1-11.2l2-5.3l12.9-3c3.8-0.9,5.6-3.1,5.6-6.6v-12.7c0-3.5-1.9-5.7-5.6-6.6l-12.9-3l-2-5.3l7.2-11.2c2.1-3.2,1.8-6.1-0.8-8.6
	l-8.9-8.9c-2.5-2.5-5.4-2.8-8.5-0.7l-11.2,7.1l-5.2-2l-3-12.8c-0.8-3.8-3-5.6-6.5-5.6h-12.7c-3.5,0-5.7,1.8-6.6,5.6l-3,12.8l-5.3,2
	l-11.3-7.1c-3.1-2.1-6-1.8-8.5,0.7l-8.9,8.9c-2.6,2.5-2.9,5.4-0.8,8.6l7.1,11.2l-2,5.3l-12.8,3c-3.8,0.9-5.6,3.1-5.6,6.6v12.7
	c0,3.5,1.8,5.7,5.6,6.6l12.8,3l2,5.3l-7.1,11.2c-2.1,3.2-1.8,6.2,0.8,8.6l8.9,8.9c2.5,2.5,5.4,2.8,8.5,0.7l11.3-7.2l5.3,2l3,12.9
	C547.7,1583,549.8,1584.8,553.4,1584.8z M553.8,1582.2c-2.5,0-3.9-1.3-4.4-3.6l-3.2-14.7c-2.5-0.8-5.3-1.8-7.6-2.7l-12.6,8
	c-2.1,1.4-4,1.1-5.8-0.7l-8.3-8.3c-1.8-1.8-2-3.6-0.6-5.7l8-12.7c-0.8-2.2-1.9-4.9-2.7-7.5l-14.7-3.3c-2.3-0.5-3.6-2-3.6-4.4v-11.9
	c0-2.4,1.3-3.9,3.6-4.4l14.7-3.3c0.8-2.5,1.9-5.3,2.7-7.5l-8-12.7c-1.4-2.1-1.2-3.9,0.6-5.7l8.3-8.3c1.8-1.8,3.8-2,5.8-0.6l12.6,8
	c2.3-0.9,5-1.9,7.6-2.7l3.2-14.7c0.5-2.2,2-3.6,4.4-3.6h11.8c2.5,0,3.9,1.1,4.4,3.6l3.3,14.7c2.7,0.8,5.3,1.8,7.5,2.7l12.6-8
	c2-1.4,4-1.1,5.7,0.6l8.3,8.3c1.8,1.8,2,3.6,0.6,5.7l-8,12.7c1,2.2,2,4.9,2.8,7.5l14.7,3.3c2.2,0.5,3.6,2,3.6,4.4v11.9
	c0,2.4-1.3,3.9-3.6,4.4l-14.7,3.3c-0.8,2.6-1.8,5.3-2.8,7.5l8,12.7c1.4,2.1,1.2,3.9-0.6,5.7l-8.3,8.3c-1.8,1.8-3.8,2.1-5.8,0.7
	l-12.6-8c-2.2,0.9-4.8,1.9-7.5,2.7l-3.3,14.7c-0.5,2.5-1.9,3.6-4.4,3.6H553.8z M559.8,1545c13.2,0,24.1-11,24.1-24.2
	c0-13.1-10.9-24.1-24.1-24.1c-13.2,0-24.2,10.9-24.2,24.1C535.6,1534,546.5,1545,559.8,1545z M559.8,1542.4
	c-11.8,0-21.7-9.9-21.7-21.6c0-11.6,10-21.5,21.7-21.5c11.7,0,21.5,9.9,21.5,21.5C581.3,1532.5,571.5,1542.4,559.8,1542.4z"/>
<path d="M2928.3,1147.7h10.1c5.5,0,10-3.6,11.1-8.7l1.4-6.1l5.4,3.3c4.6,2.7,10.2,2,14-1.9l7-6.9c3.9-4.1,4.5-9.6,1.8-14l-3.2-5.2
	l6-1.5c5.1-1.3,8.6-5.8,8.6-11.1v-9.5c0-5.4-3.5-9.9-8.6-11.2l-6-1.5l3.2-5.2c2.8-4.4,2.1-10-1.8-14.1l-7-6.9
	c-3.8-3.9-9.4-4.7-14-1.9l-5.4,3.3l-1.4-6.1c-1.2-5.1-5.7-8.7-11.1-8.7h-10.1c-5.5,0-10,3.7-11.2,8.7l-1.4,6.1l-5.3-3.3
	c-4.6-2.8-10.3-2-14,1.9l-7,6.9c-3.9,4.1-4.5,9.6-1.8,14.1l3.3,5.2l-6,1.5c-5.2,1.3-8.6,5.8-8.6,11.2v9.5c0,5.4,3.5,9.9,8.6,11.1
	l6,1.5l-3.3,5.2c-2.8,4.4-2.1,10,1.8,14l7,6.9c3.8,3.9,9.4,4.6,14,1.9l5.3-3.3l1.4,6.1C2918.4,1144.2,2922.9,1147.7,2928.3,1147.7z
	 M2931.8,1132.6c-0.8,0-1.1-0.4-1.3-1.1l-2.6-11.6c-3.7-0.5-7.6-2.2-11.4-4.7l-10.2,6.2c-0.5,0.4-1.1,0.4-1.6-0.1l-2.3-2.3
	c-0.6-0.6-0.4-1.1-0.1-1.7l6.3-10.2c-2.4-3.8-4-7.5-4.5-11.1l-11.6-2.7c-0.6-0.1-1.1-0.4-1.1-1.3v-3c0-0.8,0.4-1.1,1.1-1.3l11.6-2.6
	c0.7-3.6,2-7.4,4.5-11.1l-6.3-10.2c-0.3-0.5-0.4-1,0.1-1.6l2.3-2.3c0.5-0.5,1.1-0.5,1.6-0.1l10.2,6.2c2.8-2.1,7.3-4,11.3-4.7
	l2.7-11.6c0.1-0.6,0.4-1.1,1.3-1.1h3.3c0.8,0,1.1,0.4,1.2,1.1l2.7,11.6c3.9,0.7,7.8,2.3,11.3,4.7l10-6.1c0.5-0.4,1-0.4,1.6,0.1
	l2.3,2.3c0.6,0.5,0.4,1.1,0.1,1.6l-6.2,10.1c2.5,3.7,3.9,7.6,4.4,11l11.7,2.7c0.6,0.1,1.1,0.4,1.1,1.3v3c0,0.8-0.4,1.2-1.1,1.3
	l-11.7,2.7c-0.5,3.5-2.1,7.5-4.4,11l6.2,10.1c0.3,0.5,0.4,1-0.1,1.6l-2.3,2.3c-0.6,0.6-1.1,0.5-1.6,0.1l-10-6.1
	c-4,2.5-7.1,4-11.4,4.7l-2.7,11.6c-0.1,0.6-0.4,1.1-1.2,1.1H2931.8z M2933.4,1108.9c9.9,0,18.1-8.2,18.1-18.1c0-9.9-8.2-18-18.1-18
	c-10,0-18.1,8.1-18.1,18C2915.3,1100.8,2923.4,1108.9,2933.4,1108.9z M2933.4,1096.5c-3.1,0-5.6-2.6-5.6-5.7c0-3.1,2.6-5.6,5.6-5.6
	s5.5,2.5,5.5,5.6C2938.9,1093.9,2936.4,1096.5,2933.4,1096.5z"/>
<path d="M2631.6,1146.6h10.1c5.1,0,9.2-3.3,10.3-8.1l1.6-6.8l0.3-0.1l6,3.7c4.2,2.6,9.4,1.9,12.9-1.7l6.9-6.9
	c3.6-3.7,4.2-8.8,1.7-12.9l-3.7-5.9l0.1-0.3l6.7-1.7c4.7-1.2,8-5.3,8-10.3v-9.5c0-5-3.2-9.1-8-10.3l-6.7-1.7l-0.1-0.3l3.7-5.9
	c2.6-4.2,2-9.2-1.6-13l-7-6.9c-3.5-3.6-8.6-4.3-12.9-1.7l-6,3.6l-0.3-0.1l-1.6-6.8c-1.1-4.8-5.2-8.1-10.3-8.1h-10.1
	c-5,0-9.2,3.3-10.3,8.1l-1.6,6.8l-0.4,0.1l-6-3.6c-4.2-2.6-9.4-1.9-12.9,1.7l-6.9,6.9c-3.6,3.8-4.2,8.8-1.6,13l3.7,5.9l-0.1,0.3
	l-6.7,1.7c-4.8,1.2-8,5.3-8,10.3v9.5c0,5,3.2,9.1,8,10.3l6.7,1.7l0.1,0.3l-3.7,5.9c-2.6,4.1-2,9.2,1.6,12.9l6.9,6.9
	c3.5,3.6,8.7,4.3,12.9,1.7l6-3.7l0.3,0.1l1.6,6.8C2622.5,1143.3,2626.6,1146.6,2631.6,1146.6z M2634.5,1133.3
	c-0.8,0-1.2-0.4-1.3-1.1l-2.7-11.7c-3.5-0.6-7.1-2.1-10.5-4.3l-10.3,6.3c-0.6,0.4-1.2,0.4-1.7-0.1l-3.1-3.1
	c-0.6-0.5-0.5-1.1-0.1-1.7l6.4-10.3c-2.1-3.4-3.6-6.8-4.2-10.3l-11.7-2.7c-0.6-0.1-1.1-0.5-1.1-1.3v-4.2c0-0.8,0.4-1.1,1.1-1.3
	l11.7-2.7c0.7-3.5,2.1-7.1,4.2-10.4l-6.3-10.3c-0.3-0.5-0.4-1.1,0.1-1.7l3.2-3.1c0.5-0.5,1.1-0.5,1.7-0.2l10.2,6.3
	c2.6-1.9,6.8-3.6,10.5-4.3l2.7-11.7c0.1-0.6,0.5-1.1,1.3-1.1h4.4c0.8,0,1.2,0.4,1.3,1.1l2.8,11.7c3.7,0.7,7.3,2.2,10.5,4.3l10.2-6.2
	c0.6-0.3,1.1-0.4,1.7,0.2l3.2,3.1c0.6,0.5,0.5,1.1,0.1,1.7l-6.3,10.2c2.1,3.2,3.5,6.9,4.2,10.3l11.7,2.8c0.7,0.1,1.1,0.4,1.1,1.3
	v4.2c0,0.8-0.4,1.1-1.1,1.3l-11.7,2.8c-0.6,3.4-2.1,7-4.2,10.3l6.3,10.2c0.3,0.5,0.4,1.1-0.1,1.7l-3.2,3.1c-0.6,0.6-1.1,0.5-1.7,0.1
	l-10.1-6.2c-3.5,2.2-6.6,3.6-10.5,4.3l-2.8,11.7c-0.1,0.6-0.4,1.1-1.3,1.1H2634.5z M2636.7,1109c10,0,18.2-8.3,18.2-18.3
	c0-10-8.2-18.1-18.2-18.1s-18.2,8.2-18.2,18.1C2618.4,1100.8,2626.6,1109,2636.7,1109z M2636.7,1097.7c-3.8,0-6.9-3.2-6.9-7
	c0-3.8,3.1-6.8,6.9-6.8c3.7,0,6.8,3.1,6.8,6.8C2643.5,1094.6,2640.4,1097.7,2636.7,1097.7z"/>
<path d="M2335,1145.3h10c4.6,0,8.3-2.9,9.3-7.3l1.8-7.6l0.8-0.2l6.6,4.1c3.9,2.4,8.5,1.8,11.8-1.5l6.9-6.8c3.3-3.4,3.8-8,1.5-11.8
	l-4.1-6.5l0.3-0.7l7.6-1.8c4.3-1.1,7.2-4.8,7.2-9.4v-9.5c0-4.6-2.8-8.3-7.2-9.4l-7.5-1.9l-0.3-0.7l4.1-6.6c2.4-3.8,1.8-8.3-1.5-11.8
	l-6.9-6.8c-3.2-3.3-7.9-3.9-11.8-1.5l-6.6,4.1l-0.8-0.3l-1.8-7.6c-1-4.4-4.7-7.3-9.3-7.3h-10c-4.6,0-8.3,3-9.3,7.3l-1.8,7.6
	l-0.8,0.3l-6.6-4.1c-3.9-2.4-8.5-1.8-11.8,1.5l-6.9,6.8c-3.3,3.5-3.9,8-1.5,11.8l4.1,6.6l-0.3,0.7l-7.5,1.9
	c-4.4,1.1-7.2,4.8-7.2,9.4v9.5c0,4.6,2.9,8.3,7.2,9.4l7.6,1.8l0.3,0.7l-4.2,6.5c-2.4,3.8-1.8,8.4,1.5,11.8l6.9,6.8
	c3.2,3.3,7.9,3.9,11.8,1.5l6.6-4.1l0.8,0.2l1.8,7.6C2326.7,1142.4,2330.4,1145.3,2335,1145.3z M2337.1,1134c-0.8,0-1.2-0.4-1.3-1.1
	l-2.8-11.8c-3.4-0.7-6.7-2.1-9.6-4l-10.4,6.4c-0.6,0.4-1.2,0.3-1.7-0.2l-4.1-4c-0.6-0.5-0.5-1.1-0.1-1.7l6.4-10.4
	c-1.8-2.9-3.2-6.2-3.9-9.5l-11.9-2.8c-0.7-0.1-1.1-0.5-1.1-1.3v-5.6c0-0.8,0.4-1.2,1.1-1.4l11.9-2.8c0.7-3.3,2.1-6.7,3.8-9.5
	l-6.4-10.4c-0.4-0.6-0.4-1.2,0.1-1.8l4.1-4c0.6-0.5,1.1-0.6,1.8-0.2l10.4,6.3c2.4-1.7,6.2-3.2,9.7-4l2.8-11.8
	c0.1-0.7,0.5-1.1,1.3-1.1h5.8c0.8,0,1.2,0.3,1.3,1.1l2.8,11.9c3.5,0.7,6.7,2.2,9.6,4l10.3-6.3c0.7-0.4,1.2-0.3,1.8,0.2l4.1,4
	c0.5,0.6,0.5,1.1,0.1,1.8l-6.3,10.3c1.7,2.7,3.1,6.1,3.8,9.5l11.9,2.8c0.7,0.2,1.1,0.5,1.1,1.4v5.6c0,0.8-0.4,1.2-1.1,1.3l-11.9,2.8
	c-0.6,3.3-2,6.6-3.8,9.4l6.4,10.4c0.3,0.6,0.4,1.1-0.1,1.7l-4.1,4c-0.6,0.6-1.2,0.6-1.8,0.2l-10.3-6.3c-3,2-6,3.2-9.6,4l-2.8,11.8
	c-0.1,0.7-0.5,1.1-1.3,1.1H2337.1z M2340,1109.2c10.1,0,18.3-8.3,18.3-18.4c0-10.1-8.3-18.3-18.3-18.3c-10.1,0-18.4,8.2-18.4,18.3
	C2321.6,1100.9,2329.9,1109.2,2340,1109.2z M2340,1099.1c-4.6,0-8.3-3.8-8.3-8.4c0-4.5,3.8-8.3,8.3-8.3c4.4,0,8.2,3.8,8.2,8.3
	C2348.2,1095.3,2344.4,1099.1,2340,1099.1z"/>
<path d="M1741.6,1143.8h9.9c4.1,0,7.2-2.5,8.2-6.4l2-8.5l1.3-0.5l7.5,4.6c3.4,2.1,7.5,1.6,10.4-1.3l6.8-6.8
	c2.9-2.9,3.4-6.9,1.3-10.3l-4.6-7.5l0.5-1.2l8.5-2c3.9-1,6.4-4.2,6.4-8.2v-9.6c0-4.1-2.5-7.2-6.4-8.2l-8.5-2.1l-0.5-1.3l4.6-7.4
	c2.1-3.4,1.7-7.4-1.3-10.4l-6.8-6.8c-2.8-2.9-6.9-3.4-10.3-1.3l-7.5,4.6l-1.4-0.5l-2-8.6c-1-3.9-4.2-6.4-8.2-6.4h-9.9
	c-4.1,0-7.3,2.5-8.2,6.4l-2,8.6l-1.4,0.5l-7.5-4.6c-3.5-2.1-7.5-1.6-10.3,1.3l-6.9,6.8c-2.9,3-3.4,7-1.3,10.4l4.6,7.4l-0.5,1.3
	l-8.4,2.1c-3.9,1-6.4,4.2-6.4,8.2v9.6c0,4.1,2.5,7.2,6.4,8.2l8.5,2l0.4,1.2l-4.6,7.5c-2.1,3.4-1.6,7.4,1.3,10.3l6.9,6.8
	c2.8,2.9,6.9,3.5,10.3,1.3l7.5-4.6l1.3,0.5l2,8.5C1734.3,1141.3,1737.5,1143.8,1741.6,1143.8z M1742.9,1134.8
	c-0.8,0-1.3-0.3-1.4-1.1l-2.9-12c-3.1-0.7-6.1-2-8.4-3.5l-10.5,6.5c-0.6,0.4-1.2,0.3-1.8-0.2l-5.1-5.1c-0.6-0.5-0.6-1.1-0.2-1.8
	l6.5-10.5c-1.4-2.3-2.6-5.3-3.4-8.3l-12.1-2.9c-0.7-0.1-1.1-0.5-1.1-1.4v-7.2c0-0.9,0.3-1.2,1.1-1.4l12-2.8c0.7-3.3,2.1-6.3,3.4-8.5
	l-6.5-10.4c-0.4-0.7-0.4-1.3,0.1-1.9l5.2-5.1c0.6-0.5,1.1-0.6,1.9-0.2l10.4,6.4c2.2-1.4,5.5-2.7,8.6-3.5l2.9-12
	c0.1-0.7,0.5-1.1,1.4-1.1h7.4c0.8,0,1.2,0.3,1.4,1.1l2.9,12.1c3.2,0.8,6.1,2.1,8.5,3.5l10.4-6.4c0.7-0.4,1.3-0.3,1.9,0.2l5.2,5.1
	c0.6,0.5,0.6,1.1,0.1,1.8l-6.4,10.4c1.2,2.2,2.6,5.2,3.4,8.5l12,2.8c0.8,0.2,1.1,0.5,1.1,1.4v7.2c0,0.8-0.3,1.3-1.1,1.4l-12.1,2.9
	c-0.7,3.1-2.1,6.1-3.4,8.3l6.5,10.5c0.4,0.7,0.4,1.2-0.2,1.8l-5.1,5.2c-0.6,0.6-1.2,0.6-1.8,0.2l-10.5-6.5c-2.4,1.5-5.2,2.7-8.4,3.5
	l-2.9,12c-0.1,0.7-0.5,1.1-1.4,1.1H1742.9z M1746.6,1109.3c10.2,0,18.5-8.3,18.5-18.6c0-10.1-8.3-18.5-18.5-18.5
	c-10.2,0-18.6,8.3-18.6,18.5C1728,1101,1736.4,1109.3,1746.6,1109.3z M1746.6,1100.9c-5.6,0-10.1-4.5-10.1-10.1
	c0-5.5,4.6-10,10.1-10c5.4,0,10,4.5,10,10C1756.5,1096.3,1752,1100.9,1746.6,1100.9z"/>
<path d="M1148.2,1142.2h9.9c3.4,0,6-2.1,6.8-5.4l2.1-9.4l2.3-0.8l8.2,5.1c2.9,1.9,6.2,1.5,8.6-1l6.8-6.8c2.5-2.4,2.9-5.7,1-8.6
	l-5.1-8.2l0.8-2.3l9.4-2.1c3.4-0.8,5.4-3.4,5.4-6.8v-9.7c0-3.4-2.1-6-5.4-6.8l-9.3-2.2l-0.9-2.3l5.2-8.2c1.9-2.9,1.5-6.2-1-8.6
	l-6.8-6.9c-2.4-2.4-5.7-2.8-8.6-1l-8.2,5.1l-2.4-0.9l-2.1-9.4c-0.8-3.4-3.4-5.4-6.8-5.4h-9.9c-3.5,0-6,2-6.8,5.4l-2.1,9.4l-2.4,0.9
	l-8.2-5.1c-3-1.9-6.2-1.4-8.6,1l-6.9,6.9c-2.4,2.5-2.9,5.7-1,8.6l5.1,8.2l-0.9,2.3l-9.3,2.2c-3.4,0.8-5.4,3.4-5.4,6.8v9.7
	c0,3.4,2.1,6,5.4,6.8l9.4,2.1l0.8,2.3l-5.1,8.2c-1.9,2.9-1.5,6.2,1,8.6l6.8,6.8c2.4,2.4,5.7,2.9,8.6,1l8.2-5.1l2.4,0.8l2.1,9.4
	C1142.2,1140.1,1144.7,1142.2,1148.2,1142.2z M1148.8,1136.3c-1.2,0-1.8-0.5-2-1.6l-2.8-11.9c-2.7-0.7-5.2-1.8-7.2-2.9l-10.4,6.4
	c-0.9,0.6-1.8,0.5-2.7-0.3l-5.9-6c-0.8-0.8-0.9-1.7-0.3-2.6l6.4-10.4c-0.9-1.9-2.1-4.5-2.8-7.2l-11.9-2.8c-1.1-0.2-1.7-0.8-1.7-2
	v-8.5c0-1.2,0.5-1.8,1.7-2.1l11.9-2.8c0.7-2.8,2-5.4,2.8-7.2l-6.4-10.3c-0.6-1-0.6-1.9,0.2-2.7l6-5.9c0.9-0.8,1.7-0.9,2.7-0.3
	l10.3,6.3c2-1,4.7-2.1,7.4-2.9l2.8-11.9c0.2-1.1,0.8-1.6,2-1.6h8.6c1.2,0,1.8,0.5,2,1.6l2.8,12c2.7,0.7,5.2,1.8,7.2,2.8l10.3-6.4
	c1-0.6,1.9-0.5,2.7,0.3l6,5.9c0.8,0.8,0.9,1.7,0.2,2.7l-6.4,10.3c0.9,1.8,2.1,4.4,2.8,7.2l11.9,2.8c1.1,0.2,1.6,0.9,1.6,2.1v8.5
	c0,1.2-0.5,1.8-1.6,2l-11.9,2.8c-0.7,2.7-1.8,5.3-2.8,7.2l6.4,10.4c0.6,1,0.5,1.8-0.2,2.6l-6,6c-0.9,0.8-1.8,0.9-2.7,0.3l-10.4-6.4
	c-2,1.1-4.4,2.1-7.2,2.9l-2.8,11.9c-0.2,1.1-0.8,1.6-2,1.6H1148.8z M1153.1,1109.4c10.3,0,18.7-8.4,18.7-18.7
	c0-10.2-8.4-18.6-18.7-18.6c-10.2,0-18.7,8.4-18.7,18.6C1134.5,1101,1142.9,1109.4,1153.1,1109.4z M1153.1,1103.6
	c-7,0-12.8-5.8-12.8-12.8c0-6.9,5.8-12.7,12.8-12.7c6.9,0,12.7,5.8,12.7,12.7C1165.9,1097.7,1160.1,1103.6,1153.1,1103.6z"/>
<path d="M851.5,1141.1h9.8c3,0,5.1-1.7,5.8-4.8l2.3-9.7l3.3-1.3l8.5,5.4c2.6,1.7,5.3,1.4,7.4-0.7l6.9-6.9c2.1-2.1,2.5-4.8,0.8-7.4
	l-5.4-8.5l1.2-3.3l9.8-2.3c3.1-0.7,4.8-2.8,4.8-5.8v-9.8c0-3-1.7-5-4.8-5.8l-9.7-2.3l-1.3-3.4l5.4-8.4c1.7-2.7,1.4-5.3-0.8-7.5
	l-6.9-6.9c-2.1-2.1-4.7-2.4-7.4-0.7l-8.5,5.3l-3.3-1.3l-2.3-9.7c-0.7-3.1-2.7-4.8-5.8-4.8h-9.8c-3,0-5.1,1.7-5.8,4.8l-2.2,9.7
	l-3.4,1.3l-8.5-5.3c-2.6-1.7-5.3-1.4-7.4,0.7l-6.9,6.9c-2.2,2.1-2.5,4.8-0.8,7.5l5.4,8.4l-1.3,3.4l-9.7,2.3
	c-3.1,0.7-4.8,2.8-4.8,5.8v9.8c0,3,1.7,5,4.8,5.8l9.7,2.3l1.2,3.3l-5.4,8.5c-1.7,2.6-1.4,5.3,0.8,7.4l6.9,6.9
	c2.1,2.1,4.8,2.4,7.5,0.7l8.5-5.4l3.4,1.3l2.2,9.7C846.4,1139.4,848.5,1141.1,851.5,1141.1z M852,1137.5c-1.6,0-2.5-0.8-2.8-2.3
	l-2.6-11.6c-2.3-0.6-4.6-1.5-6.4-2.4l-10,6.3c-1.3,0.9-2.6,0.7-3.8-0.4l-6.2-6.2c-1.2-1.1-1.3-2.3-0.4-3.7l6.3-10.1
	c-0.8-1.8-1.7-4.1-2.4-6.3l-11.6-2.6c-1.5-0.3-2.3-1.3-2.3-2.8v-8.9c0-1.6,0.8-2.5,2.3-2.8l11.6-2.6c0.6-2.3,1.7-4.6,2.4-6.4
	l-6.3-10.1c-0.9-1.4-0.8-2.5,0.4-3.7l6.2-6.2c1.2-1.2,2.4-1.3,3.8-0.5l10,6.3c1.9-0.8,4.2-1.8,6.5-2.4l2.6-11.6
	c0.3-1.5,1.2-2.3,2.8-2.3h8.9c1.7,0,2.5,0.7,2.8,2.3l2.6,11.6c2.4,0.6,4.5,1.6,6.4,2.4l10-6.3c1.3-0.8,2.6-0.7,3.8,0.5l6.2,6.2
	c1.2,1.1,1.3,2.3,0.4,3.7l-6.3,10.1c0.8,1.8,1.8,4.1,2.4,6.4l11.6,2.6c1.5,0.3,2.3,1.2,2.3,2.8v8.9c0,1.6-0.8,2.5-2.3,2.8l-11.6,2.6
	c-0.7,2.3-1.6,4.5-2.4,6.3l6.3,10.1c0.9,1.4,0.7,2.5-0.4,3.7l-6.2,6.2c-1.2,1.2-2.4,1.3-3.7,0.4l-10-6.3c-1.8,0.9-4,1.8-6.4,2.4
	l-2.6,11.6c-0.3,1.6-1.2,2.3-2.8,2.3H852z M856.4,1109.5c10.3,0,18.7-8.5,18.7-18.8c0-10.2-8.4-18.6-18.7-18.6
	c-10.2,0-18.7,8.4-18.7,18.6C837.7,1101,846.2,1109.5,856.4,1109.5z M856.4,1105.9c-8.3,0-15.1-6.9-15.1-15.2c0-8.2,6.9-15,15.1-15
	c8.2,0,15.1,6.9,15.1,15C871.6,1099,864.7,1105.9,856.4,1105.9z"/>
<path d="M554.8,1140.6h9.9c2.8,0,4.5-1.5,5.2-4.4l2.3-10l3.8-1.4l8.7,5.5c2.5,1.6,4.8,1.4,6.8-0.6l6.9-6.9c2.1-2,2.3-4.3,0.7-6.9
	l-5.5-8.6l1.4-3.9l9.9-2.3c3-0.7,4.5-2.5,4.5-5.3v-9.9c0-2.8-1.5-4.5-4.5-5.2l-9.9-2.3l-1.5-3.9l5.5-8.6c1.6-2.5,1.4-4.9-0.7-6.9
	l-6.9-6.9c-2-2-4.3-2.2-6.8-0.6l-8.7,5.5l-3.8-1.5l-2.3-9.9c-0.7-3-2.4-4.5-5.2-4.5h-9.9c-2.8,0-4.6,1.5-5.3,4.5l-2.3,9.9l-3.9,1.5
	l-8.7-5.5c-2.4-1.6-4.8-1.4-6.8,0.6l-6.9,6.9c-2.1,2-2.3,4.3-0.7,6.9l5.5,8.6l-1.5,3.9l-9.9,2.3c-3,0.7-4.4,2.4-4.4,5.2v9.9
	c0,2.8,1.5,4.6,4.4,5.3l9.9,2.3l1.5,3.9l-5.5,8.6c-1.6,2.5-1.4,4.9,0.7,6.9l6.9,6.9c2,2,4.3,2.2,6.8,0.6l8.7-5.5l3.9,1.4l2.3,10
	C550.2,1139.1,552,1140.6,554.8,1140.6z M555.2,1138.2c-1.9,0-2.9-0.9-3.3-2.6l-2.5-11.5c-2-0.6-4.2-1.4-6-2.1l-9.8,6.2
	c-1.5,1-3,0.8-4.3-0.5l-6.3-6.3c-1.3-1.3-1.5-2.6-0.4-4.2l6.2-9.9c-0.7-1.8-1.5-3.9-2.1-6l-11.5-2.5c-1.7-0.4-2.6-1.5-2.6-3.3v-9.1
	c0-1.9,0.9-2.9,2.6-3.3l11.5-2.6c0.6-2,1.5-4.2,2.1-5.9l-6.2-9.9c-1-1.6-0.9-2.9,0.4-4.2l6.3-6.4c1.3-1.3,2.8-1.5,4.3-0.5l9.8,6.2
	c1.8-0.7,4-1.5,6-2.1l2.5-11.4c0.4-1.7,1.5-2.7,3.3-2.7h9.1c1.9,0,2.9,0.8,3.3,2.7l2.6,11.4c2.1,0.6,4.2,1.4,5.9,2.1l9.9-6.2
	c1.5-1,2.9-0.8,4.2,0.5l6.4,6.4c1.3,1.3,1.4,2.6,0.4,4.2l-6.2,9.9c0.8,1.7,1.6,3.9,2.2,5.9l11.5,2.6c1.7,0.3,2.6,1.4,2.6,3.3v9.1
	c0,1.9-1,2.9-2.6,3.3l-11.5,2.5c-0.6,2.1-1.4,4.2-2.2,6l6.2,9.9c1,1.6,0.9,2.9-0.4,4.2l-6.4,6.3c-1.3,1.3-2.7,1.5-4.2,0.5l-9.9-6.2
	c-1.7,0.7-3.8,1.5-5.9,2.1l-2.6,11.5c-0.3,1.8-1.4,2.6-3.3,2.6H555.2z M559.8,1109.5c10.3,0,18.7-8.5,18.7-18.8
	c0-10.2-8.4-18.7-18.7-18.7c-10.2,0-18.8,8.5-18.8,18.7C541,1101,549.5,1109.5,559.8,1109.5z M559.8,1107.1
	c-8.9,0-16.4-7.5-16.4-16.4c0-8.8,7.5-16.3,16.4-16.3s16.3,7.5,16.3,16.3C576.1,1099.6,568.6,1107.1,559.8,1107.1z"/>
<path d="M2929.4,705.3h7.9c4.2,0,7.8-2.8,8.7-6.8l1.1-4.8l4.2,2.6c3.6,2.1,8,1.6,10.9-1.5l5.5-5.4c3-3.2,3.5-7.5,1.4-10.9l-2.6-4.2
	l4.7-1.2c4-1,6.7-4.5,6.7-8.7V657c0-4.2-2.7-7.7-6.7-8.7l-4.7-1.2l2.6-4.2c2.2-3.5,1.7-7.8-1.4-10.9l-5.5-5.4
	c-2.9-3-7.3-3.7-10.9-1.5l-4.2,2.6l-1.1-4.8c-0.9-4-4.4-6.8-8.7-6.8h-7.9c-4.2,0-7.8,2.8-8.7,6.8l-1.1,4.8l-4.2-2.6
	c-3.6-2.1-8-1.6-10.9,1.5l-5.5,5.4c-3,3.2-3.6,7.5-1.4,10.9l2.6,4.2l-4.7,1.2c-4.1,1-6.7,4.5-6.7,8.7v7.4c0,4.2,2.7,7.7,6.7,8.7
	l4.7,1.2l-2.6,4.2c-2.2,3.5-1.7,7.8,1.4,10.9l5.5,5.4c2.9,3,7.3,3.6,10.9,1.5l4.2-2.6l1.1,4.8
	C2921.7,702.5,2925.2,705.3,2929.4,705.3z M2932.1,693.6c-0.6,0-0.9-0.3-1-0.8l-2.1-9.1c-2.9-0.4-5.9-1.7-8.8-3.7l-8,4.9
	c-0.4,0.3-0.9,0.3-1.3-0.1l-1.9-1.9c-0.4-0.4-0.3-0.9-0.1-1.3l5-8c-1.9-2.9-3.1-5.8-3.5-8.6l-9.1-2.1c-0.5-0.1-0.8-0.3-0.8-1v-2.4
	c0-0.6,0.3-0.9,0.8-1l9.1-2.1c0.5-2.8,1.6-5.8,3.5-8.6l-5-8c-0.2-0.4-0.3-0.8,0.1-1.3l1.9-1.9c0.4-0.4,0.8-0.4,1.3-0.1l8,4.9
	c2.1-1.6,5.7-3.1,8.8-3.7l2.1-9.1c0.1-0.5,0.3-0.8,1-0.8h2.6c0.6,0,0.9,0.3,1,0.8l2.1,9.1c3,0.5,6.1,1.8,8.8,3.7l7.9-4.8
	c0.4-0.3,0.8-0.3,1.3,0.1l1.9,1.9c0.4,0.4,0.3,0.9,0.1,1.3l-4.9,7.9c1.9,2.8,3,5.9,3.5,8.6l9.1,2.1c0.5,0.1,0.8,0.3,0.8,1v2.4
	c0,0.6-0.3,0.9-0.8,1l-9.1,2.1c-0.4,2.7-1.6,5.8-3.5,8.6l4.9,7.9c0.2,0.4,0.3,0.8-0.1,1.3l-1.9,1.9c-0.4,0.4-0.8,0.4-1.3,0.1
	l-7.8-4.8c-3.1,2-5.5,3.1-8.8,3.7l-2.1,9.1c-0.1,0.5-0.3,0.8-1,0.8H2932.1z M2933.4,675c7.8,0,14.2-6.4,14.2-14.2
	c0-7.8-6.4-14.1-14.2-14.1c-7.8,0-14.2,6.3-14.2,14.1C2919.2,668.6,2925.6,675,2933.4,675z M2933.4,665.3c-2.5,0-4.5-2.1-4.5-4.5
	c0-2.4,2.1-4.4,4.5-4.4c2.4,0,4.4,2.1,4.4,4.4C2937.8,663.2,2935.8,665.3,2933.4,665.3z"/>
<path d="M2632.8,704.5h7.9c4,0,7.2-2.6,8.1-6.3l1.3-5.3l0.2-0.1l4.7,2.9c3.3,2.1,7.4,1.5,10.2-1.4l5.5-5.4c2.8-3,3.3-7,1.3-10.2
	l-2.9-4.6l0-0.2l5.3-1.3c3.8-0.9,6.3-4.2,6.3-8.1V657c0-3.9-2.5-7.2-6.3-8.1l-5.2-1.3l-0.1-0.1l2.9-4.6c2.1-3.2,1.6-7.2-1.3-10.2
	l-5.5-5.4c-2.7-2.8-6.8-3.4-10.2-1.4l-4.7,2.9l-0.2-0.1l-1.3-5.3c-0.9-3.8-4.2-6.3-8.1-6.3h-7.9c-4,0-7.3,2.6-8.2,6.3l-1.2,5.3
	l-0.2,0.1l-4.6-2.9c-3.4-2-7.5-1.5-10.2,1.4l-5.4,5.4c-2.8,3-3.4,7-1.3,10.2l2.8,4.6l0,0.1l-5.3,1.3c-3.8,1-6.2,4.2-6.2,8.1v7.5
	c0,4,2.5,7.2,6.2,8.1l5.3,1.3l0.1,0.2l-2.9,4.6c-2.1,3.2-1.6,7.2,1.3,10.2l5.4,5.4c2.8,2.8,6.9,3.4,10.2,1.4l4.7-2.9l0.2,0.1
	l1.2,5.3C2625.5,702,2628.8,704.5,2632.8,704.5z M2634.9,694c-0.6,0-0.8-0.3-0.9-0.8l-2.1-9.2c-2.8-0.5-5.7-1.7-8.3-3.4l-8.1,4.9
	c-0.4,0.3-0.8,0.3-1.2-0.1l-2.5-2.4c-0.4-0.4-0.3-0.8-0.1-1.2l5-8.1c-1.7-2.6-2.8-5.4-3.3-8.1l-9.2-2.1c-0.4-0.1-0.7-0.3-0.7-0.9
	v-3.4c0-0.6,0.2-0.8,0.7-0.9l9.2-2.1c0.5-2.7,1.6-5.6,3.3-8.2l-5-8.1c-0.2-0.4-0.3-0.8,0.1-1.3l2.5-2.4c0.4-0.4,0.8-0.4,1.2-0.1
	l8.1,4.9c2.1-1.5,5.3-2.8,8.3-3.4l2.2-9.2c0.1-0.5,0.3-0.8,0.9-0.8h3.5c0.6,0,0.9,0.3,0.9,0.8l2.2,9.2c2.9,0.6,5.8,1.8,8.3,3.4
	l8-4.8c0.4-0.3,0.8-0.3,1.2,0.1l2.5,2.4c0.4,0.4,0.3,0.8,0.1,1.2l-4.9,8c1.6,2.5,2.7,5.4,3.3,8.1l9.2,2.2c0.5,0.1,0.8,0.3,0.8,0.9
	v3.4c0,0.6-0.3,0.8-0.8,0.9l-9.2,2.2c-0.5,2.7-1.7,5.6-3.3,8.1l4.9,8.1c0.2,0.3,0.3,0.8-0.1,1.2l-2.5,2.5c-0.4,0.4-0.8,0.4-1.2,0.1
	l-8-4.9c-2.7,1.8-5.2,2.8-8.3,3.4l-2.2,9.2c0,0.5-0.3,0.8-0.9,0.8H2634.9z M2636.7,675.1c7.8,0,14.3-6.4,14.3-14.3
	c0-7.8-6.4-14.2-14.3-14.2c-7.9,0-14.3,6.4-14.3,14.2C2622.4,668.7,2628.8,675.1,2636.7,675.1z M2636.7,666.1
	c-2.9,0-5.3-2.4-5.3-5.3c0-2.9,2.4-5.2,5.3-5.2c2.8,0,5.2,2.4,5.2,5.2C2641.8,663.7,2639.5,666.1,2636.7,666.1z"/>
<path d="M2336.1,703.7h7.8c3.7,0,6.6-2.3,7.5-5.8l1.4-5.9l0.4-0.1l5.2,3.1c3.1,1.9,6.8,1.4,9.4-1.2l5.4-5.4c2.6-2.7,3.1-6.4,1.2-9.4
	l-3.2-5.1l0.1-0.4l5.9-1.4c3.5-0.9,5.8-3.9,5.8-7.5v-7.5c0-3.7-2.3-6.6-5.8-7.5l-5.8-1.5l-0.2-0.4l3.2-5.1c1.9-3,1.4-6.7-1.2-9.4
	l-5.4-5.4c-2.5-2.6-6.3-3.1-9.4-1.2l-5.2,3.1l-0.5-0.2l-1.4-5.9c-0.8-3.5-3.8-5.8-7.5-5.8h-7.8c-3.7,0-6.7,2.3-7.5,5.8l-1.4,5.9
	l-0.4,0.2l-5.2-3.1c-3.1-1.9-6.8-1.4-9.4,1.2l-5.4,5.4c-2.6,2.7-3.1,6.4-1.2,9.4l3.2,5.1l-0.1,0.4l-5.9,1.5
	c-3.5,0.8-5.8,3.8-5.8,7.5v7.5c0,3.6,2.3,6.6,5.8,7.5l5.9,1.4l0.1,0.4l-3.2,5.1c-1.9,3-1.4,6.7,1.2,9.4l5.4,5.4
	c2.6,2.6,6.3,3.1,9.4,1.2l5.2-3.1l0.4,0.1l1.4,5.9C2329.4,701.3,2332.4,703.7,2336.1,703.7z M2337.7,694.4c-0.5,0-0.8-0.2-0.9-0.7
	l-2.2-9.3c-2.7-0.5-5.3-1.7-7.7-3.2l-8.2,5c-0.4,0.3-0.8,0.2-1.2-0.1l-3.1-3.2c-0.4-0.3-0.3-0.7-0.1-1.1l5.1-8.2
	c-1.5-2.3-2.5-4.8-3.1-7.5l-9.4-2.2c-0.4-0.1-0.7-0.3-0.7-0.9v-4.3c0-0.6,0.2-0.8,0.7-0.9l9.3-2.2c0.6-2.7,1.7-5.4,3.1-7.6l-5.1-8.2
	c-0.2-0.4-0.3-0.8,0.1-1.2l3.2-3.1c0.4-0.4,0.7-0.4,1.2-0.1l8.2,5c2-1.3,4.9-2.6,7.7-3.2l2.2-9.4c0.1-0.4,0.3-0.7,0.9-0.7h4.5
	c0.5,0,0.8,0.2,0.9,0.7l2.2,9.4c2.8,0.6,5.4,1.8,7.7,3.2l8.1-4.9c0.5-0.2,0.8-0.2,1.2,0.1l3.1,3.1c0.4,0.4,0.3,0.8,0.1,1.2l-5,8.2
	c1.3,2.1,2.4,4.8,3,7.5l9.3,2.2c0.5,0.1,0.7,0.3,0.7,0.9v4.3c0,0.5-0.2,0.8-0.7,0.9l-9.4,2.2c-0.5,2.6-1.6,5.3-3,7.5l5,8.2
	c0.2,0.4,0.2,0.8-0.1,1.1l-3.1,3.2c-0.4,0.4-0.8,0.4-1.2,0.1l-8.1-5c-2.4,1.6-4.7,2.6-7.7,3.2l-2.2,9.3c-0.1,0.4-0.3,0.7-0.9,0.7
	H2337.7z M2340,675.2c7.9,0,14.4-6.5,14.4-14.4c0-7.9-6.5-14.3-14.4-14.3c-7.9,0-14.4,6.4-14.4,14.3
	C2325.6,668.7,2332.1,675.2,2340,675.2z M2340,666.9c-3.4,0-6.2-2.8-6.2-6.2c0-3.3,2.8-6.1,6.2-6.1c3.3,0,6.1,2.8,6.1,6.1
	C2346.1,664.1,2343.3,666.9,2340,666.9z"/>
<path d="M1742.7,702.6h7.8c3.3,0,6-2.1,6.7-5.2l1.6-6.6l0.7-0.2l5.8,3.6c2.8,1.7,6.1,1.3,8.4-1.1l5.4-5.4c2.3-2.4,2.8-5.7,1-8.4
	l-3.6-5.8l0.2-0.6l6.6-1.5c3.1-0.8,5.2-3.5,5.2-6.7v-7.5c0-3.3-2.1-5.9-5.2-6.7l-6.5-1.6l-0.3-0.7l3.6-5.7c1.8-2.7,1.3-6-1.1-8.5
	l-5.3-5.3c-2.3-2.3-5.7-2.8-8.4-1.1l-5.8,3.5l-0.7-0.2l-1.6-6.6c-0.7-3.1-3.4-5.2-6.7-5.2h-7.8c-3.3,0-6,2.1-6.7,5.2l-1.6,6.6
	l-0.8,0.2l-5.8-3.5c-2.8-1.7-6.1-1.2-8.4,1.1l-5.4,5.3c-2.3,2.5-2.8,5.8-1,8.5l3.6,5.7l-0.3,0.7l-6.5,1.6c-3.1,0.8-5.2,3.4-5.2,6.7
	v7.5c0,3.3,2.1,6,5.2,6.7l6.6,1.5l0.2,0.6l-3.6,5.8c-1.7,2.7-1.3,6,1.1,8.4l5.4,5.4c2.3,2.3,5.7,2.8,8.4,1.1l5.8-3.6l0.7,0.2
	l1.6,6.6C1736.7,700.5,1739.4,702.6,1742.7,702.6z M1743.7,694.9c-0.5,0-0.7-0.2-0.8-0.6l-2.3-9.5c-2.6-0.6-5-1.6-6.9-2.9l-8.4,5.1
	c-0.3,0.2-0.7,0.2-1.1-0.1l-4-4c-0.3-0.3-0.3-0.6-0.1-1l5.1-8.3c-1.1-1.9-2.2-4.2-2.8-6.8l-9.5-2.2c-0.4-0.1-0.7-0.3-0.7-0.8v-5.6
	c0-0.5,0.2-0.7,0.7-0.8l9.5-2.3c0.6-2.7,1.8-5.2,2.8-6.9l-5.1-8.3c-0.2-0.4-0.2-0.8,0.1-1.1l4-3.9c0.4-0.3,0.7-0.4,1.1-0.1l8.3,5
	c1.8-1.1,4.4-2.2,7-2.9l2.3-9.5c0.1-0.4,0.3-0.6,0.8-0.6h5.7c0.5,0,0.7,0.2,0.8,0.6l2.3,9.6c2.6,0.6,5,1.7,6.9,2.9l8.3-5.1
	c0.5-0.2,0.7-0.2,1.1,0.1l4,3.9c0.4,0.3,0.3,0.7,0.1,1.1l-5.1,8.3c0.9,1.7,2.1,4.2,2.7,6.9l9.5,2.3c0.5,0.1,0.6,0.3,0.6,0.8v5.6
	c0,0.5-0.2,0.7-0.6,0.8l-9.5,2.3c-0.6,2.5-1.7,4.9-2.8,6.8l5.1,8.3c0.2,0.4,0.2,0.7-0.1,1.1l-4,4c-0.4,0.3-0.7,0.4-1.1,0.1l-8.3-5.1
	c-2,1.3-4.2,2.2-6.9,2.9l-2.3,9.5c-0.1,0.4-0.3,0.6-0.8,0.6H1743.7z M1746.5,675.3c8,0,14.5-6.5,14.5-14.6c0-7.9-6.5-14.5-14.5-14.5
	c-8,0-14.5,6.5-14.5,14.5C1732,668.8,1738.6,675.3,1746.5,675.3z M1746.5,668c-4,0-7.2-3.2-7.2-7.2c0-3.9,3.2-7.1,7.2-7.1
	c3.9,0,7.1,3.2,7.1,7.1C1753.7,664.7,1750.4,668,1746.5,668z"/>
<path d="M1149.3,701.3h7.7c2.8,0,5-1.7,5.6-4.4l1.7-7.2l1.5-0.6l6.3,4c2.4,1.5,5.1,1.1,7.1-0.9l5.3-5.3c2.1-2,2.4-4.7,0.9-7.1
	l-4-6.3l0.5-1.5l7.3-1.7c2.7-0.7,4.4-2.8,4.4-5.6v-7.6c0-2.8-1.7-5-4.4-5.6l-7.2-1.8l-0.6-1.5l3.9-6.3c1.6-2.4,1.2-5-0.8-7.1
	l-5.4-5.3c-2-2-4.7-2.3-7.1-0.9l-6.3,3.9l-1.6-0.6l-1.7-7.3c-0.6-2.7-2.8-4.4-5.6-4.4h-7.7c-2.8,0-4.9,1.7-5.6,4.4l-1.7,7.3
	l-1.6,0.6l-6.3-3.9c-2.4-1.5-5.1-1.1-7.1,0.9l-5.4,5.3c-2,2.1-2.3,4.7-0.8,7.1l4,6.3l-0.6,1.5l-7.2,1.8c-2.8,0.6-4.4,2.8-4.4,5.6
	v7.6c0,2.8,1.7,4.9,4.4,5.6l7.2,1.7l0.5,1.5l-3.9,6.3c-1.6,2.4-1.2,5.1,0.8,7.1l5.4,5.3c2,2,4.7,2.4,7.1,0.9l6.3-4l1.5,0.6l1.7,7.2
	C1144.3,699.7,1146.4,701.3,1149.3,701.3z M1149.8,696c-0.8,0-1.2-0.3-1.4-1.1l-2.2-9.4c-2.2-0.6-4.3-1.5-5.9-2.4l-8.2,5.1
	c-0.6,0.4-1.2,0.3-1.8-0.2l-4.5-4.6c-0.6-0.5-0.6-1.1-0.2-1.7l5.1-8.2c-0.8-1.6-1.8-3.7-2.3-5.9l-9.4-2.2c-0.7-0.1-1.1-0.5-1.1-1.3
	v-6.5c0-0.8,0.3-1.2,1.1-1.4l9.4-2.2c0.6-2.3,1.7-4.5,2.3-6l-5.1-8.2c-0.4-0.7-0.4-1.2,0.1-1.8l4.6-4.5c0.6-0.5,1.1-0.6,1.8-0.2
	l8.2,5c1.6-0.9,3.8-1.8,6-2.4l2.2-9.4c0.1-0.7,0.5-1.1,1.4-1.1h6.6c0.8,0,1.2,0.3,1.4,1.1l2.2,9.4c2.2,0.6,4.2,1.5,5.9,2.4l8.2-5
	c0.7-0.4,1.2-0.3,1.8,0.2l4.6,4.5c0.5,0.6,0.6,1.1,0.1,1.8l-5,8.2c0.7,1.5,1.7,3.6,2.3,6l9.4,2.2c0.7,0.1,1.1,0.5,1.1,1.4v6.5
	c0,0.8-0.3,1.2-1.1,1.3l-9.4,2.2c-0.6,2.2-1.5,4.3-2.4,5.9l5.1,8.2c0.4,0.6,0.4,1.2-0.1,1.7l-4.6,4.6c-0.6,0.6-1.2,0.6-1.8,0.2
	l-8.3-5.1c-1.6,0.9-3.6,1.8-5.9,2.4l-2.2,9.4c-0.1,0.8-0.5,1.1-1.4,1.1H1149.8z M1153.2,675.4c8,0,14.6-6.6,14.6-14.6
	c0-8-6.5-14.6-14.6-14.6s-14.6,6.6-14.6,14.6C1138.5,668.8,1145.1,675.4,1153.2,675.4z M1153.2,670.1c-5.1,0-9.4-4.2-9.4-9.4
	c0-5.1,4.2-9.3,9.4-9.3c5,0,9.3,4.2,9.3,9.3C1162.4,665.9,1158.2,670.1,1153.2,670.1z"/>
<path d="M852.6,700.4h7.7c2.4,0,4.1-1.4,4.7-3.9l1.8-7.6l2.4-0.9l6.6,4.2c2.1,1.4,4.3,1.1,6.1-0.6l5.4-5.4c1.8-1.7,2.1-3.9,0.7-6.1
	l-4.2-6.6l0.9-2.4l7.6-1.8c2.5-0.6,3.9-2.3,3.9-4.7V657c0-2.4-1.4-4.2-3.9-4.7l-7.6-1.8l-0.9-2.4l4.2-6.5c1.4-2.1,1.1-4.3-0.7-6.1
	l-5.4-5.4c-1.7-1.7-3.9-2-6.1-0.6l-6.6,4.1l-2.4-0.9l-1.8-7.6c-0.6-2.5-2.2-3.9-4.7-3.9h-7.7c-2.4,0-4.2,1.4-4.7,3.9l-1.8,7.6
	l-2.5,0.9l-6.6-4.1c-2.1-1.4-4.3-1.1-6,0.6l-5.4,5.4c-1.8,1.8-2.1,4-0.6,6.1l4.2,6.5l-0.9,2.4l-7.5,1.8c-2.5,0.6-3.9,2.3-3.9,4.7
	v7.7c0,2.4,1.4,4.2,3.9,4.7l7.6,1.8l0.9,2.4l-4.2,6.6c-1.4,2.1-1.1,4.3,0.6,6.1l5.4,5.4c1.7,1.7,3.9,2,6.1,0.6l6.6-4.2l2.4,0.9
	l1.8,7.6C848.4,699,850.1,700.4,852.6,700.4z M853,697.2c-1.2,0-1.9-0.6-2.1-1.7l-2.1-9.1c-1.9-0.5-3.7-1.2-5.2-2l-7.9,4.9
	c-1,0.6-1.9,0.5-2.7-0.3l-4.8-4.8c-0.8-0.8-0.9-1.7-0.2-2.7l4.9-8c-0.6-1.4-1.4-3.3-2-5.1l-9.1-2.1c-1.1-0.2-1.7-0.9-1.7-2.1v-6.9
	c0-1.2,0.6-1.9,1.7-2.1l9.1-2.1c0.5-1.9,1.4-3.8,2-5.1l-5-8c-0.6-1-0.5-1.9,0.3-2.7l4.8-4.8c0.8-0.9,1.8-1,2.7-0.3l7.9,4.9
	c1.5-0.7,3.4-1.5,5.2-2l2.1-9.1c0.2-1.1,0.9-1.7,2.1-1.7h6.9c1.2,0,1.8,0.5,2.1,1.7l2.1,9.2c2,0.5,3.7,1.3,5.2,2l7.9-4.9
	c1-0.6,1.9-0.5,2.7,0.3l4.8,4.8c0.8,0.8,0.9,1.7,0.2,2.7l-4.9,8c0.6,1.4,1.5,3.2,2,5.1l9.2,2.1c1.1,0.2,1.7,0.9,1.7,2.1v6.9
	c0,1.2-0.6,1.9-1.7,2.1l-9.2,2.1c-0.5,1.9-1.3,3.7-2,5.1l5,8c0.6,1,0.5,1.9-0.3,2.7l-4.8,4.8c-0.8,0.8-1.8,0.9-2.7,0.3l-7.9-4.9
	c-1.5,0.7-3.3,1.4-5.2,2l-2.1,9.1c-0.2,1.2-0.9,1.7-2.1,1.7H853z M856.4,675.4c8,0,14.6-6.6,14.6-14.6c0-8-6.6-14.6-14.6-14.6
	c-8,0-14.6,6.6-14.6,14.6C841.8,668.8,848.4,675.4,856.4,675.4z M856.4,672.2c-6.2,0-11.4-5.2-11.4-11.4c0-6.2,5.2-11.3,11.4-11.3
	c6.2,0,11.4,5.2,11.4,11.3C867.8,667,862.6,672.2,856.4,672.2z"/>
<path d="M555.8,699.9h7.7c2.2,0,3.7-1.2,4.2-3.6l1.8-7.7l2.9-1.1l6.7,4.3c2,1.3,3.9,1.1,5.5-0.5l5.4-5.4c1.7-1.6,1.9-3.5,0.5-5.5
	l-4.2-6.7l1.1-2.9l7.7-1.8c2.4-0.5,3.6-2,3.6-4.2v-7.7c0-2.2-1.2-3.7-3.6-4.2l-7.7-1.8l-1.1-2.9l4.2-6.7c1.3-2.1,1.1-4-0.5-5.5
	l-5.4-5.4c-1.6-1.6-3.5-1.8-5.5-0.5l-6.8,4.2l-2.9-1.1l-1.8-7.7c-0.5-2.4-2-3.6-4.2-3.6h-7.7c-2.2,0-3.7,1.2-4.2,3.6l-1.8,7.7
	l-2.9,1.1l-6.7-4.2c-2-1.3-3.9-1.1-5.5,0.5l-5.4,5.4c-1.7,1.6-1.9,3.5-0.6,5.5l4.3,6.7l-1.1,2.9l-7.7,1.8c-2.3,0.5-3.6,2-3.6,4.2
	v7.7c0,2.2,1.2,3.7,3.6,4.2l7.7,1.8l1.1,2.9l-4.3,6.7c-1.3,2.1-1.1,4,0.6,5.5l5.4,5.4c1.6,1.6,3.5,1.8,5.5,0.5l6.8-4.3l2.9,1.1
	l1.8,7.7C552.1,698.7,553.6,699.9,555.8,699.9z M556.2,697.7c-1.4,0-2.2-0.7-2.5-2l-2-9c-1.7-0.5-3.4-1.1-4.8-1.8l-7.7,4.9
	c-1.2,0.8-2.2,0.6-3.2-0.3l-4.9-5c-1-1-1.1-2-0.3-3.1l4.9-7.8c-0.5-1.4-1.3-3.1-1.8-4.8l-9-2c-1.3-0.3-2-1.1-2-2.4v-7.1
	c0-1.4,0.7-2.2,2-2.5l9-2c0.5-1.7,1.2-3.4,1.8-4.8l-4.9-7.8c-0.8-1.2-0.7-2.1,0.3-3.1l5-5c1-1,2.1-1.1,3.2-0.3l7.7,4.9
	c1.5-0.6,3.2-1.3,4.8-1.8l2-9c0.3-1.3,1.1-2,2.5-2h7.1c1.4,0,2.1,0.6,2.4,2l2.1,9c1.7,0.5,3.4,1.1,4.7,1.8l7.8-4.9
	c1.1-0.8,2.2-0.6,3.2,0.3l4.9,5c1,1,1.1,2,0.3,3.1l-4.9,7.8c0.6,1.4,1.3,3.1,1.8,4.8l9,2c1.3,0.3,2,1.1,2,2.5v7.1
	c0,1.4-0.7,2.1-2,2.4l-9,2c-0.5,1.7-1.2,3.4-1.8,4.8l4.9,7.8c0.7,1.2,0.6,2.1-0.3,3.1l-4.9,5c-1,1-2.1,1.1-3.2,0.3l-7.8-4.9
	c-1.4,0.6-3,1.3-4.7,1.8l-2.1,9c-0.3,1.4-1,2-2.4,2H556.2z M559.7,675.4c8,0,14.6-6.6,14.6-14.7c0-8-6.6-14.6-14.6-14.6
	s-14.7,6.6-14.7,14.6C545,668.8,551.7,675.4,559.7,675.4z M559.7,673.2c-6.8,0-12.5-5.7-12.5-12.5c0-6.7,5.8-12.4,12.5-12.4
	c6.8,0,12.5,5.7,12.5,12.4C572.2,667.5,566.5,673.2,559.7,673.2z"/>
<g id="Regular-M">
	<path d="M1449.8,1142.9c-11.4,0-15.5-2.3-15.5-7.3v-8.1c-3.1-1.3-6-3-8.6-5l-7,4c-0.9,0.6-2,0.8-3.1,0.8
		c-7.5,0-15.5-18.9-15.5-22.2c0-2.2,1.2-4.4,3.2-5.5l7-4c-0.2-1.7-0.3-3.4-0.3-5s0.1-3.3,0.3-5l-7-4c-2-1.2-3.2-3.3-3.2-5.5
		c0-2.6,7.7-22.2,15.5-22.2c1.1,0,2.2,0.3,3.2,0.8l7,4c2.7-2,5.5-3.7,8.6-5v-8.1c0-6.4,7.3-7.3,15.5-7.3c8.1,0,15.5,0.8,15.5,7.3
		v8.1c3.1,1.3,6,3,8.6,5l7-4c0.9-0.6,2-0.8,3.1-0.8c7.4,0,15.5,18.9,15.5,22.2c0,2.2-1.2,4.4-3.2,5.5l-7,4c0.2,1.7,0.3,3.4,0.3,5
		c0,1.6-0.1,3.3-0.3,5l7,4c2,1.2,3.2,3.3,3.2,5.5c0,2.6-7.7,22.2-15.5,22.2c-1.1,0-2.2-0.3-3.2-0.8l-7-4c-2.7,2-5.5,3.7-8.6,5v8.1
		C1465.3,1140.6,1461.3,1142.9,1449.8,1142.9z M1426.4,1114.6c7.3,6.3,10.7,7,14.5,8.4v12.6c2.9,0.5,5.9,0.8,8.9,0.8
		c3,0,6.1-0.3,9.2-0.9l-0.2-12.4c3.3-1.2,7.2-2.1,14.5-8.4l10.9,6.3c3.8-4.5,6.9-9.8,8.8-15.6l-10.8-6.2c0.6-3.1,1-5.2,1-8
		c0-2.2-0.3-4.9-1-8.8l10.9-6.3c-2-5.7-5.1-11-9.2-15.6l-10.7,6.4c-7.3-6.3-10.7-7-14.5-8.4v-12.6c-2.9-0.5-5.9-0.8-8.9-0.8
		c-3,0-6.1,0.3-9.2,0.9l0.2,12.4c-3.3,1.2-7.2,2.1-14.5,8.4l-10.9-6.3c-3.9,4.5-6.9,9.9-8.9,15.8l10.9,6c-0.6,3.1-1,5.2-1,8
		c0,2.2,0.3,4.9,1,8.8l-10.9,6.3c2,5.7,5.1,11,9.2,15.6L1426.4,1114.6z M1449.8,1110.3c-10.8,0-19.6-8.8-19.6-19.6
		s8.8-19.6,19.6-19.6s19.6,8.8,19.6,19.6C1469.4,1101.5,1460.6,1110.3,1449.8,1110.3z M1449.8,1077.7c-7.2,0-13.1,5.9-13.1,13.1
		c0,7.2,5.9,13.1,13.1,13.1s13.1-5.9,13.1-13.1C1462.9,1083.5,1457,1077.7,1449.8,1077.7z"/>
</g>
<g id="Regular-L">
	<path d="M1449.8,1587.4c-14.6,0-19.8-2.9-19.8-9.4v-10.3c-4-1.7-7.6-3.8-11-6.4l-8.9,5.2c-1.2,0.7-2.6,1-4,1
		c-9.6,0-19.9-24.2-19.9-28.3c0-2.8,1.5-5.6,4.1-7l8.9-5.1c-0.3-2.2-0.4-4.3-0.4-6.4s0.1-4.2,0.4-6.4l-8.9-5.1
		c-2.6-1.5-4.1-4.2-4.1-7c0-3.3,9.9-28.3,19.8-28.3c1.4,0,2.8,0.3,4,1.1l8.9,5.1c3.4-2.6,7.1-4.7,11-6.4v-10.3
		c0-8.2,9.3-9.3,19.8-9.3c10.3,0,19.8,1.1,19.8,9.3v10.3c4,1.7,7.6,3.8,11,6.4l8.9-5.2c1.2-0.7,2.6-1,4-1c9.5,0,19.8,24.1,19.8,28.3
		c0,2.8-1.5,5.6-4.1,7l-8.9,5.1c0.3,2.2,0.4,4.3,0.4,6.4c0,2.1-0.1,4.2-0.4,6.4l8.9,5.1c2.6,1.5,4.1,4.2,4.1,7
		c0,3.3-9.9,28.3-19.8,28.3c-1.4,0-2.8-0.3-4-1.1l-8.9-5.1c-3.4,2.6-7.1,4.7-11,6.4v10.3C1469.6,1584.4,1464.5,1587.4,1449.8,1587.4
		z M1419.9,1551.3c9.4,8,13.6,8.9,18.5,10.7v16.1c3.7,0.6,7.5,1,11.4,1c3.9,0,7.8-0.4,11.8-1.2l-0.2-15.9c4.2-1.5,9.2-2.7,18.5-10.7
		l14,8.1c4.9-5.7,8.8-12.5,11.3-19.9l-13.8-8c0.7-3.9,1.3-6.6,1.3-10.2c0-2.9-0.4-6.2-1.3-11.2l13.9-8c-2.6-7.2-6.5-14.1-11.7-20
		l-13.6,8.2c-9.4-8-13.6-8.9-18.5-10.7v-16.1c-3.7-0.6-7.5-1-11.4-1c-3.9,0-7.8,0.4-11.8,1.2l0.2,15.9c-4.2,1.5-9.2,2.7-18.5,10.7
		l-14-8.1c-4.9,5.8-8.9,12.6-11.4,20.2l13.9,7.7c-0.7,3.9-1.3,6.6-1.3,10.2c0,2.9,0.4,6.2,1.3,11.2l-13.9,8
		c2.6,7.2,6.5,14.1,11.7,20L1419.9,1551.3z M1449.8,1545.7c-13.8,0-25-11.2-25-25c0-13.8,11.2-25,25-25s25,11.2,25,25
		C1474.8,1534.5,1463.6,1545.7,1449.8,1545.7z M1449.8,1504.1c-9.2,0-16.7,7.5-16.7,16.7c0,9.2,7.5,16.7,16.7,16.7
		s16.7-7.5,16.7-16.7S1459,1504.1,1449.8,1504.1z"/>
</g>
<g id="Regular-S">
	<path d="M1449.8,702.1c-9,0-12.3-1.8-12.3-5.8v-6.4c-2.4-1-4.7-2.3-6.8-3.9l-5.5,3.2c-0.7,0.4-1.6,0.6-2.5,0.6
		c-5.9,0-12.3-15-12.3-17.5c0-1.8,0.9-3.4,2.5-4.4l5.5-3.2c-0.2-1.3-0.3-2.7-0.3-3.9c0-1.3,0.1-2.6,0.3-3.9l-5.5-3.2
		c-1.6-0.9-2.5-2.6-2.5-4.4c0-2,6.1-17.5,12.3-17.5c0.9,0,1.7,0.2,2.5,0.7l5.5,3.2c2.1-1.6,4.4-2.9,6.8-3.9v-6.4
		c0-5.1,5.8-5.8,12.3-5.8c6.4,0,12.3,0.7,12.3,5.8v6.4c2.4,1,4.7,2.3,6.8,3.9l5.5-3.2c0.7-0.4,1.6-0.6,2.5-0.6
		c5.9,0,12.3,14.9,12.3,17.5c0,1.8-0.9,3.4-2.5,4.4l-5.5,3.2c0.2,1.3,0.3,2.7,0.3,3.9s-0.1,2.6-0.3,3.9l5.5,3.2
		c1.6,0.9,2.5,2.6,2.5,4.4c0,2-6.1,17.5-12.3,17.5c-0.9,0-1.7-0.2-2.5-0.7l-5.5-3.2c-2.1,1.6-4.4,2.9-6.8,3.9v6.4
		C1462.1,700.3,1458.9,702.1,1449.8,702.1z M1431.3,679.7c5.8,5,8.4,5.5,11.5,6.6v10c2.3,0.4,4.7,0.6,7.1,0.6c2.4,0,4.9-0.2,7.3-0.7
		l-0.2-9.8c2.6-0.9,5.7-1.6,11.5-6.6l8.7,5c3-3.6,5.4-7.7,7-12.4l-8.5-4.9c0.4-2.4,0.8-4.1,0.8-6.3c0-1.8-0.2-3.9-0.8-6.9l8.6-5
		c-1.6-4.5-4-8.7-7.3-12.4l-8.5,5.1c-5.8-5-8.4-5.5-11.5-6.6v-10c-2.3-0.4-4.7-0.6-7.1-0.6c-2.4,0-4.9,0.2-7.3,0.7l0.2,9.8
		c-2.6,0.9-5.7,1.6-11.5,6.6l-8.7-5c-3.1,3.6-5.5,7.8-7,12.5l8.6,4.8c-0.4,2.4-0.8,4.1-0.8,6.3c0,1.8,0.2,3.9,0.8,6.9l-8.6,5
		c1.6,4.5,4,8.7,7.3,12.4L1431.3,679.7z M1449.8,676.3c-8.5,0-15.5-6.9-15.5-15.5c0-8.5,6.9-15.5,15.5-15.5s15.5,6.9,15.5,15.5
		S1458.4,676.3,1449.8,676.3z M1449.8,650.5c-5.7,0-10.3,4.6-10.3,10.3c0,5.7,4.6,10.3,10.3,10.3s10.3-4.6,10.3-10.3
		S1455.5,650.5,1449.8,650.5z"/>
</g>
<g id="Semibold-L">
	<path d="M2109.5,1536.8c0-2.3-1.2-4.5-3.3-5.7l-8.8-5.1c0.2-1.7,0.3-3.5,0.3-5.2s-0.1-3.5-0.3-5.2l8.8-5.1c2.1-1.2,3.3-3.4,3.3-5.7
		c0-5.7-13.2-34.2-22.6-34.2c-1.1,0-2.3,0.3-3.3,0.9l-8.8,5.1c-2.9-2.1-5.9-3.8-9.1-5.3v-10.1c0-3-2-5.6-4.9-6.4
		c-5.8-1.5-11.7-2.3-17.6-2.3c-5.9,0-11.9,0.8-17.7,2.3c-2.9,0.8-4.9,3.4-4.9,6.4v10.1c-3.2,1.4-6.2,3.2-9.1,5.3l-8.8-5.1
		c-1-0.6-2.2-0.9-3.3-0.9c0,0,0,0,0,0c-8.7,0-22.6,27.2-22.6,34.2c0,2.3,1.2,4.5,3.3,5.7l8.8,5.1c-0.2,1.7-0.3,3.5-0.3,5.2
		s0.1,3.5,0.3,5.2l-8.8,5.1c-2.1,1.2-3.3,3.4-3.3,5.7c0,5.7,13.2,34.2,22.6,34.2c1.1,0,2.3-0.3,3.3-0.9l8.8-5.1
		c2.9,2.1,5.9,3.8,9.1,5.3v10.1c0,3,2,5.6,4.9,6.4c5.8,1.5,11.7,2.3,17.6,2.3c5.9,0,11.9-0.8,17.7-2.3c2.9-0.8,4.9-3.4,4.9-6.4
		v-10.1c3.2-1.4,6.2-3.2,9.1-5.3l8.8,5.1c1,0.6,2.2,0.9,3.3,0.9C2095.6,1571,2109.5,1543.8,2109.5,1536.8z M2085.7,1556.5
		c-6.4-3.7-3-1.7-11.7-6.7c-11.2,8.1-8.6,6.6-21.1,12.3v13.4c-3.6,0.6-6.8,0.8-9.7,0.8c-4.1,0-7.5-0.5-9.7-0.8V1562
		c-12.5-5.7-9.9-4.1-21.1-12.3c-8.5,4.9-6.1,3.5-11.7,6.7c-4.2-5-7.5-10.7-9.7-16.9c5.6-3.3,3.2-1.8,11.6-6.7c-0.7-6.8-1-9.5-1-12.2
		c0-2.7,0.3-5.4,1-12.2c-8.5-4.9-6-3.5-11.6-6.7c2.2-6.2,5.5-11.9,9.7-16.9c6.4,3.7,3,1.7,11.7,6.7c11.2-8.1,8.6-6.6,21.1-12.3
		v-13.4c3.6-0.6,6.8-0.8,9.7-0.8c4.1,0,7.5,0.5,9.7,0.8v13.4c12.5,5.7,9.9,4.1,21.1,12.3c9.1-5.2,6-3.5,11.7-6.7
		c4.2,5,7.5,10.7,9.7,16.9c-5.6,3.3-3.2,1.8-11.6,6.7c0.7,6.8,1,9.5,1,12.2c0,2.7-0.3,5.4-1,12.2c8.5,4.9,6,3.5,11.6,6.7
		C2093.2,1545.8,2089.9,1551.5,2085.7,1556.5z M2043.2,1495.1c-14.1,0-25.6,11.5-25.6,25.6s11.5,25.6,25.6,25.6s25.6-11.5,25.6-25.6
		S2057.3,1495.1,2043.2,1495.1z M2043.2,1533.6c-7.1,0-12.8-5.7-12.8-12.8c0-7.1,5.8-12.8,12.8-12.8s12.8,5.8,12.8,12.8
		C2056,1527.8,2050.3,1533.6,2043.2,1533.6z"/>
</g>
<g id="Semibold-M">
	<path d="M2095,1102.9c0-1.8-1-3.5-2.6-4.5l-6.9-4c0.1-1.4,0.2-2.7,0.2-4.1c0-1.4-0.1-2.7-0.2-4.1l6.9-4c1.6-0.9,2.6-2.7,2.6-4.5
		c0-4.4-10.3-26.7-17.6-26.7c-0.9,0-1.8,0.2-2.6,0.7l-6.8,4c-2.2-1.6-4.6-3-7.1-4.1v-7.9c0-2.3-1.6-4.4-3.8-5
		c-4.5-1.2-9.1-1.8-13.8-1.8c-4.6,0-9.3,0.6-13.8,1.8c-2.3,0.6-3.8,2.6-3.8,5v7.9c-2.5,1.1-4.9,2.5-7.1,4.1l-6.8-4
		c-0.8-0.5-1.7-0.7-2.6-0.7c0,0,0,0,0,0c-6.8,0-17.6,21.2-17.6,26.7c0,1.8,1,3.5,2.6,4.5l6.9,4c-0.1,1.4-0.2,2.7-0.2,4.1
		c0,1.4,0.1,2.7,0.2,4.1l-6.9,4c-1.6,0.9-2.6,2.7-2.6,4.5c0,4.4,10.3,26.7,17.6,26.7c0.9,0,1.8-0.2,2.6-0.7l6.8-4
		c2.2,1.6,4.6,3,7.1,4.1v7.9c0,2.3,1.6,4.4,3.8,5c4.5,1.2,9.1,1.8,13.8,1.8c4.6,0,9.3-0.6,13.8-1.8c2.3-0.6,3.8-2.6,3.8-5v-7.9
		c2.5-1.1,4.9-2.5,7.1-4.1l6.8,4c0.8,0.5,1.7,0.7,2.6,0.7C2084.1,1129.7,2095,1108.5,2095,1102.9z M2076.4,1118.4
		c-5-2.9-2.3-1.4-9.1-5.3c-8.8,6.3-6.7,5.2-16.5,9.6v10.5c-2.8,0.5-5.3,0.7-7.6,0.7c-3.2,0-5.8-0.4-7.6-0.7v-10.5
		c-9.8-4.4-7.8-3.2-16.5-9.6c-6.6,3.8-4.7,2.7-9.1,5.3c-3.3-3.9-5.9-8.4-7.6-13.2c4.4-2.5,2.5-1.4,9.1-5.2c-0.5-5.3-0.8-7.4-0.8-9.5
		c0-2.1,0.3-4.2,0.8-9.5c-6.7-3.8-4.7-2.7-9.1-5.2c1.7-4.8,4.3-9.3,7.6-13.2c5,2.9,2.3,1.4,9.1,5.3c8.8-6.3,6.7-5.2,16.5-9.6v-10.5
		c2.8-0.5,5.3-0.7,7.6-0.7c3.2,0,5.8,0.4,7.6,0.7v10.5c9.8,4.4,7.8,3.2,16.5,9.6c7.1-4.1,4.7-2.7,9.1-5.3c3.3,3.9,5.9,8.4,7.6,13.2
		c-4.4,2.5-2.5,1.4-9.1,5.2c0.5,5.3,0.8,7.4,0.8,9.5c0,2.1-0.3,4.2-0.8,9.5c6.7,3.8,4.7,2.7,9.1,5.2
		C2082.3,1110,2079.7,1114.5,2076.4,1118.4z M2043.2,1070.4c-11,0-20,9-20,20s9,20,20,20s20-9,20-20S2054.2,1070.4,2043.2,1070.4z
		 M2043.2,1100.4c-5.5,0-10-4.5-10-10c0-5.5,4.5-10,10-10s10,4.5,10,10C2053.2,1095.9,2048.7,1100.4,2043.2,1100.4z"/>
</g>
<g id="Semibold-S">
	<path d="M2083.8,670.6c0-1.4-0.8-2.8-2-3.5l-5.4-3.1c0.1-1.1,0.2-2.1,0.2-3.2c0-1.1-0.1-2.1-0.2-3.2l5.4-3.1c1.3-0.7,2-2.1,2-3.5
		c0-3.5-8.1-21-13.8-21c-0.7,0-1.4,0.2-2,0.5l-5.4,3.1c-1.8-1.3-3.6-2.3-5.6-3.2v-6.2c0-1.8-1.2-3.4-3-3.9
		c-3.5-0.9-7.2-1.4-10.8-1.4c-3.6,0-7.3,0.5-10.8,1.4c-1.8,0.5-3,2.1-3,3.9v6.2c-2,0.9-3.8,2-5.6,3.2l-5.4-3.1
		c-0.6-0.4-1.3-0.5-2-0.5c0,0,0,0,0,0c-5.3,0-13.8,16.7-13.8,21c0,1.4,0.8,2.8,2,3.5l5.4,3.1c-0.1,1.1-0.2,2.1-0.2,3.2
		c0,1.1,0.1,2.1,0.2,3.2l-5.4,3.1c-1.3,0.7-2,2.1-2,3.5c0,3.5,8.1,21,13.8,21c0.7,0,1.4-0.2,2-0.5l5.4-3.1c1.8,1.3,3.6,2.3,5.6,3.2
		v6.2c0,1.8,1.2,3.4,3,3.9c3.5,0.9,7.2,1.4,10.8,1.4c3.6,0,7.3-0.5,10.8-1.4c1.8-0.5,3-2.1,3-3.9v-6.2c2-0.9,3.8-2,5.6-3.2l5.4,3.1
		c0.6,0.4,1.3,0.5,2,0.5C2075.3,691.5,2083.8,674.9,2083.8,670.6z M2069.3,682.7c-3.9-2.3-1.8-1.1-7.1-4.1c-6.9,5-5.3,4-13,7.5v8.2
		c-2.2,0.4-4.2,0.5-6,0.5c-2.5,0-4.6-0.3-6-0.5V686c-7.7-3.5-6.1-2.5-13-7.5c-5.2,3-3.7,2.1-7.1,4.1c-2.6-3.1-4.6-6.6-6-10.3
		c3.5-2,1.9-1.1,7.1-4.1c-0.4-4.2-0.6-5.8-0.6-7.5c0-1.6,0.2-3.3,0.6-7.5c-5.2-3-3.7-2.1-7.1-4.1c1.4-3.8,3.4-7.3,6-10.3
		c3.9,2.3,1.8,1.1,7.1,4.1c6.9-5,5.3-4,13-7.5v-8.2c2.2-0.4,4.2-0.5,6-0.5c2.5,0,4.6,0.3,6,0.5v8.2c7.7,3.5,6.1,2.5,13,7.5
		c5.6-3.2,3.7-2.1,7.1-4.1c2.6,3.1,4.6,6.6,6,10.3c-3.5,2-1.9,1.1-7.1,4.1c0.4,4.2,0.6,5.8,0.6,7.5c0,1.6-0.2,3.3-0.6,7.5
		c5.2,3,3.7,2.1,7.1,4.1C2073.9,676.1,2071.8,679.6,2069.3,682.7z M2043.2,645c-8.7,0-15.7,7.1-15.7,15.7s7.1,15.7,15.7,15.7
		s15.7-7.1,15.7-15.7S2051.9,645,2043.2,645z M2043.2,668.6c-4.3,0-7.9-3.5-7.9-7.9c0-4.3,3.5-7.9,7.9-7.9c4.3,0,7.9,3.5,7.9,7.9
		C2051.1,665.1,2047.5,668.6,2043.2,668.6z"/>
</g>
</svg>
