<svg xmlns="http://www.w3.org/2000/svg" viewBox="0 0 90 90"><defs><style>.cls-1{fill:#fff;}.cls-2{fill:#965122;}.cls-3{fill:#197250;}.cls-4{fill:#ce242a;}</style></defs><g id="Layer_2" data-name="Layer 2"><g id="Layer_1-2" data-name="Layer 1"><path class="cls-1" d="M26.76,87.57H63.24V2.43H26.76Zm5.43-48.32a.6.6,0,0,1,.79-.34c1.25.5,1.74,1.22,1.67,2.19a4.23,4.23,0,0,1-.08.59c-.11.58-.1.67.11.81a4.3,4.3,0,0,1,2,2.73c.12.37.18.45.36.52a2.12,2.12,0,0,0,1.49-.45,6.48,6.48,0,0,1,0-.75,2.92,2.92,0,0,1,.11-.85l-.09,0c-1-.2-1.67-.53-2-1.37-.47-1.32,0-2.23,1.22-3.36l.42-.38.33-.34c.2-.22.26-.36.24-.45,0-.25-.43-.39-1.37-.42h-.51c-1.4,0-1.7-.06-2-.64A2.51,2.51,0,0,1,36,33.33a.61.61,0,0,1,.84.18.6.6,0,0,1-.17.84,1.31,1.31,0,0,0-.61,1.86c0-.13.28-.08.87-.08h.46a2.64,2.64,0,0,1,.75-1c.17-.91,2.33-5.26,7.25-.63,1-2.25-3.42-1.6-2.28-3.43C44.7,29,53.18,32.3,54.68,34.7c.64,1,4.58,7.13,2.35,13.53-2.35-5.13-8.66-7.54-8.62-7.46a8.28,8.28,0,0,1,1,3.11c.06,1.1,6.16,3.32,5.9,4.35-.18.75-3.9,1.19-5.9.17a.61.61,0,0,1-.19.27,4.57,4.57,0,0,1,1.91,1.56c2.17-.32,2.57-1,3.29.1,1,1.54-.95,3.14-5.85,2.15a1.86,1.86,0,0,0-.94.36A1.21,1.21,0,0,1,48.65,54v1.22a1.22,1.22,0,0,1-1.22,1.21H42.57a1.22,1.22,0,0,1-1.22-1.21V54a1.22,1.22,0,0,1,1.22-1.21h2.32c0-.17.07-.34.11-.52-7,1-12.17-4-12.17-4.62s.4-2.25,1.88-1.2c.83.58,3.91,2.6,10.08,3.23a3.11,3.11,0,0,1,1.93-1.25c-.66-.72-1.41-1.73-1.72-2-.64-.47-1,1.57-3.17.6a1.49,1.49,0,0,1-.74-.54,6.81,6.81,0,0,0-1.34-.17,1.66,1.66,0,0,1-.54-.08,3.16,3.16,0,0,1-2.56.57,1.67,1.67,0,0,1-1.11-1.28A3.19,3.19,0,0,0,34,43.51c-.75-.5-.82-1-.63-2a2.87,2.87,0,0,0,.07-.44c0-.42-.14-.67-.91-1A.62.62,0,0,1,32.19,39.25Zm-3,2.63a1.22,1.22,0,0,1,1.22,1.22,14.59,14.59,0,0,0,29.18,0,1.22,1.22,0,1,1,2.44,0A17,17,0,0,1,28,43.1,1.22,1.22,0,0,1,29.19,41.88Z"/><path class="cls-2" d="M43.55,44.86a2.73,2.73,0,0,1,.72-.3,2.21,2.21,0,0,1,1.88.38,4.83,4.83,0,0,1,.82.82l.69.83.15.17.33-1.13A2.34,2.34,0,0,1,47.42,44a6.43,6.43,0,0,0-.77-2.39c-.31-1.06-.31-1.06.54-2.33.79-.42.79-.42,1.12-.43a1.77,1.77,0,0,1,.5,0l.26.06.31.12c.25.09.54.22.86.37a22.85,22.85,0,0,1,2.66,1.5,19.7,19.7,0,0,1,2.83,2.25,15.48,15.48,0,0,0-1.36-5A17.55,17.55,0,0,0,53,35.73c-.41-.67-2.49-1.92-4.73-2.69-.38-.13-.74-.24-1.09-.34a3.09,3.09,0,0,1,0,2.56l-1.09,2.56-2-1.9c-.23-.22-.45-.41-.65-.58.42,2.48-1,2.87-1,5.58C42.35,42.14,43.77,42.14,43.55,44.86Z"/><path class="cls-3" d="M2.43,15.81V74.19A13.38,13.38,0,0,0,15.81,87.57h8.51V2.43H15.81A13.38,13.38,0,0,0,2.43,15.81Z"/><path class="cls-2" d="M39,42.54a5,5,0,0,1,.95.24c.7,0,1.28.76,1.69,1.59A2,2,0,0,0,41.19,43c-2.09-2.81.62-5.89.28-7.24,0-.2-1,1-2.14.75a1.4,1.4,0,0,1,.66,1A1.73,1.73,0,0,1,39.46,39c-.12.13-.25.26-.41.41l-.42.39c-.91.84-1.16,1.34-.91,2.06.11.32.38.46,1.05.59Z"/><path class="cls-4" d="M74.19,2.43H65.68V87.57h8.51A13.38,13.38,0,0,0,87.57,74.19V15.81A13.38,13.38,0,0,0,74.19,2.43Z"/><path d="M74.19,0H15.81A15.81,15.81,0,0,0,0,15.81V74.19A15.81,15.81,0,0,0,15.81,90H74.19A15.81,15.81,0,0,0,90,74.19V15.81A15.81,15.81,0,0,0,74.19,0ZM24.32,87.57H15.81A13.38,13.38,0,0,1,2.43,74.19V15.81A13.38,13.38,0,0,1,15.81,2.43h8.51Zm38.92,0H26.76V2.43H63.24ZM87.57,74.19A13.38,13.38,0,0,1,74.19,87.57H65.68V2.43h8.51A13.38,13.38,0,0,1,87.57,15.81Z"/><path d="M45,60.12a17,17,0,0,0,17-17,1.22,1.22,0,1,0-2.44,0,14.59,14.59,0,0,1-29.18,0,1.22,1.22,0,0,0-2.44,0A17,17,0,0,0,45,60.12Z"/><path d="M32.53,40c.77.31.94.56.91,1a2.87,2.87,0,0,1-.07.44c-.19,1-.12,1.55.63,2a3.19,3.19,0,0,1,1.54,2.1,1.67,1.67,0,0,0,1.11,1.28,3.16,3.16,0,0,0,2.56-.57,1.66,1.66,0,0,0,.54.08,6.81,6.81,0,0,1,1.34.17,1.49,1.49,0,0,0,.74.54c2.22,1,2.53-1.07,3.17-.6.31.23,1.06,1.24,1.72,2a3.11,3.11,0,0,0-1.93,1.25c-6.17-.63-9.25-2.65-10.08-3.23-1.48-1.05-1.88.53-1.88,1.2S38,53.29,45,52.31c0,.18-.08.35-.11.52H42.57A1.22,1.22,0,0,0,41.35,54v1.22a1.22,1.22,0,0,0,1.22,1.21h4.86a1.22,1.22,0,0,0,1.22-1.21V54a1.21,1.21,0,0,0-1.07-1.2,1.86,1.86,0,0,1,.94-.36c4.9,1,6.8-.61,5.85-2.15-.72-1.14-1.12-.42-3.29-.1a4.57,4.57,0,0,0-1.91-1.56.61.61,0,0,0,.19-.27c2,1,5.72.58,5.9-.17.26-1-5.84-3.25-5.9-4.35a8.28,8.28,0,0,0-1-3.11c0-.08,6.27,2.33,8.62,7.46,2.23-6.4-1.71-12.49-2.35-13.53-1.5-2.4-10-5.73-11.58-3.63C42,32.9,46.34,32.25,45.38,34.5c-4.92-4.63-7.08-.28-7.25.63a2.64,2.64,0,0,0-.75,1h-.46c-.59,0-.92-.05-.87.08a1.31,1.31,0,0,1,.61-1.86.6.6,0,0,0,.17-.84.61.61,0,0,0-.84-.18,2.51,2.51,0,0,0-1.05,3.38c.27.58.57.62,2,.64h.51c.94,0,1.33.17,1.37.42,0,.09,0,.23-.24.45l-.33.34L37.8,39c-1.22,1.13-1.69,2-1.22,3.36.29.84.91,1.17,2,1.37l.09,0a2.92,2.92,0,0,0-.11.85,6.48,6.48,0,0,0,0,.75,2.12,2.12,0,0,1-1.49.45c-.18-.07-.24-.15-.36-.52a4.3,4.3,0,0,0-2-2.73c-.21-.14-.22-.23-.11-.81a4.23,4.23,0,0,0,.08-.59c.07-1-.42-1.69-1.67-2.19a.6.6,0,0,0-.79.34A.62.62,0,0,0,32.53,40Zm10.87-4.7c.2.17.42.36.65.58l2,1.9,1.09-2.56a3.09,3.09,0,0,0,0-2.56c.35.1.71.21,1.09.34,2.24.77,4.32,2,4.73,2.69a17.55,17.55,0,0,1,1.35,2.48,15.48,15.48,0,0,1,1.36,5,19.7,19.7,0,0,0-2.83-2.25,22.85,22.85,0,0,0-2.66-1.5c-.32-.15-.61-.28-.86-.37l-.31-.12-.26-.06a1.77,1.77,0,0,0-.5,0c-.33,0-.33,0-1.12.43-.85,1.27-.85,1.27-.54,2.33A6.43,6.43,0,0,1,47.42,44a2.34,2.34,0,0,0,.72,1.65l-.33,1.13-.15-.17L47,45.76a4.83,4.83,0,0,0-.82-.82,2.21,2.21,0,0,0-1.88-.38,2.73,2.73,0,0,0-.72.3c.22-2.72-1.2-2.72-1.2-3.94C42.35,38.21,43.82,37.82,43.4,35.34ZM37.72,41.9c-.25-.72,0-1.22.91-2.06l.42-.39c.16-.15.29-.28.41-.41A1.73,1.73,0,0,0,40,37.58a1.4,1.4,0,0,0-.66-1c1.13.21,2.09-.95,2.14-.75.34,1.35-2.37,4.43-.28,7.24a2,2,0,0,1,.48,1.34c-.41-.83-1-1.59-1.69-1.59a5,5,0,0,0-.95-.24l-.26,0C38.1,42.36,37.83,42.22,37.72,41.9Z"/></g></g></svg>