<svg xmlns="http://www.w3.org/2000/svg" viewBox="0 0 90 90"><defs><style>.cls-1{fill:#fff;}.cls-2{fill:#c11e36;}.cls-3{fill:#0b2e74;}</style></defs><g id="Layer_2" data-name="Layer 2"><g id="Layer_1-2" data-name="Layer 1"><path class="cls-1" d="M4.76,81.73H85.24a13.3,13.3,0,0,0,2.13-5.35H2.63A13.3,13.3,0,0,0,4.76,81.73Z"/><rect class="cls-2" x="2.43" y="56.92" width="85.14" height="3.41"/><path class="cls-2" d="M15.81,87.57H74.19a13.3,13.3,0,0,0,8.89-3.41H6.92A13.3,13.3,0,0,0,15.81,87.57Z"/><rect class="cls-1" x="2.43" y="62.76" width="85.14" height="5.35"/><path class="cls-1" d="M85.24,8.27h-39v5.35H87.37A13.3,13.3,0,0,0,85.24,8.27Z"/><path class="cls-3" d="M43.78,42.08V2.43h-28A13.38,13.38,0,0,0,2.43,15.81V46.7H43.78ZM7.51,44.54l-1.43-.76-1.43.76.27-1.6L3.77,41.82l1.6-.24.71-1.44.72,1.44,1.59.24L7.24,42.94ZM7.24,28.35l.27,1.59-1.43-.75-1.43.75.27-1.59L3.77,27.22,5.37,27l.71-1.45L6.8,27l1.59.23Zm0-14.6.27,1.6-1.43-.76-1.43.76.27-1.6L3.77,12.63l1.6-.24L6.08,11l.72,1.44,1.59.24Zm5.14,23.49L11,36.49l-1.43.75.27-1.59L8.63,34.52l1.6-.23L11,32.84l.71,1.45,1.6.23L12.1,35.65ZM12.1,21.05l.28,1.59L11,21.89l-1.43.75.27-1.59L8.63,19.92l1.6-.23L11,18.24l.71,1.45,1.6.23Zm0-14.59.28,1.59L11,7.3l-1.43.75.27-1.59L8.63,5.33l1.6-.23L11,3.65l.71,1.45,1.6.23Zm5.14,38.08-1.43-.76-1.43.76.27-1.6L13.5,41.82l1.6-.24.71-1.44.72,1.44,1.59.24L17,42.94ZM17,28.35l.27,1.59-1.43-.75-1.43.75.27-1.59L13.5,27.22,15.1,27l.71-1.45L16.53,27l1.59.23Zm0-14.6.27,1.6-1.43-.76-1.43.76.27-1.6L13.5,12.63l1.6-.24L15.81,11l.72,1.44,1.59.24Zm5.14,23.49-1.43-.75-1.43.75.27-1.59-1.16-1.13,1.6-.23.72-1.45.71,1.45,1.6.23-1.16,1.13Zm-.28-16.19.28,1.59-1.43-.75-1.43.75.27-1.59-1.16-1.13,1.6-.23.72-1.45.71,1.45,1.6.23Zm0-14.59.28,1.59L20.68,7.3l-1.43.75.27-1.59L18.36,5.33,20,5.1l.72-1.45.71,1.45,1.6.23ZM27,44.54l-1.43-.76-1.43.76.27-1.6-1.15-1.12,1.6-.24.71-1.44.72,1.44,1.59.24L26.7,42.94ZM26.7,28.35,27,29.94l-1.43-.75-1.43.75.27-1.59-1.15-1.13,1.6-.23.71-1.45L26.26,27l1.59.23Zm0-14.6.27,1.6-1.43-.76-1.43.76.27-1.6-1.15-1.12,1.6-.24L25.54,11l.72,1.44,1.59.24Zm5.14,23.49-1.43-.75L29,37.24l.27-1.59-1.16-1.13,1.6-.23.72-1.45.71,1.45,1.6.23-1.16,1.13Zm-.28-16.19.28,1.59-1.43-.75L29,22.64l.27-1.59-1.16-1.13,1.6-.23.72-1.45.71,1.45,1.6.23Zm0-14.59.28,1.59L30.41,7.3,29,8.05l.27-1.59L28.09,5.33l1.6-.23.72-1.45.71,1.45,1.6.23ZM36.7,44.54l-1.43-.76-1.43.76.27-1.6L33,41.82l1.6-.24.71-1.44L36,41.58l1.59.24-1.15,1.12Zm-.27-16.19.27,1.59-1.43-.75-1.43.75.27-1.59L33,27.22l1.6-.23.71-1.45L36,27l1.59.23Zm0-14.6.27,1.6-1.43-.76-1.43.76.27-1.6L33,12.63l1.6-.24L35.27,11,36,12.39l1.59.24Zm5.13,23.49-1.42-.75-1.43.75L39,35.65l-1.16-1.13,1.6-.23.72-1.45.71,1.45,1.6.23-1.16,1.13Zm-.27-16.19.27,1.59-1.42-.75-1.43.75L39,21.05l-1.16-1.13,1.6-.23.72-1.45.71,1.45,1.6.23Zm0-14.59.27,1.59L40.14,7.3l-1.43.75L39,6.46,37.82,5.33l1.6-.23.72-1.45.71,1.45,1.6.23Z"/><path class="cls-2" d="M74.19,2.43h-28V5.84H83.08A13.3,13.3,0,0,0,74.19,2.43Z"/><rect class="cls-2" x="2.43" y="70.54" width="85.14" height="3.41"/><rect class="cls-2" x="46.22" y="16.05" width="41.35" height="3.41"/><rect class="cls-1" x="46.22" y="21.89" width="41.35" height="5.35"/><rect class="cls-1" x="46.22" y="35.51" width="41.35" height="5.35"/><rect class="cls-2" x="46.22" y="29.68" width="41.35" height="3.41"/><rect class="cls-2" x="46.22" y="43.3" width="41.35" height="3.41"/><polygon class="cls-1" points="45 49.13 2.43 49.13 2.43 54.49 87.57 54.49 87.57 49.13 46.22 49.13 45 49.13"/><path d="M74.19,0H15.81A15.81,15.81,0,0,0,0,15.81V75.16a1.21,1.21,0,0,0,.07.33A15.8,15.8,0,0,0,15.81,90H74.19A15.8,15.8,0,0,0,89.93,75.49a1.21,1.21,0,0,0,.07-.33V14.84a1.21,1.21,0,0,0-.07-.33A15.8,15.8,0,0,0,74.19,0Zm-28,2.43h28a13.3,13.3,0,0,1,8.89,3.41H46.22Zm0,5.84h39a13.3,13.3,0,0,1,2.13,5.35H46.22ZM2.43,15.81A13.38,13.38,0,0,1,15.81,2.43h28V46.7H2.43ZM74.19,87.57H15.81a13.3,13.3,0,0,1-8.89-3.41H83.08A13.3,13.3,0,0,1,74.19,87.57Zm11-5.84H4.76a13.3,13.3,0,0,1-2.13-5.35H87.37A13.3,13.3,0,0,1,85.24,81.73ZM87.57,74H2.43V70.54H87.57Zm0-5.84H2.43V62.76H87.57Zm0-7.79H2.43v-3.4H87.57Zm0-5.83H2.43V49.14H87.57Zm0-7.79H46.22V43.3H87.57Zm0-5.84H46.22V35.51H87.57Zm0-7.78H46.22v-3.4H87.57Zm0-5.84H46.22V21.89H87.57Zm0-7.78H46.22V16.05H87.57Z"/><polygon class="cls-1" points="10.95 3.65 10.23 5.1 8.63 5.33 9.79 6.46 9.52 8.05 10.95 7.3 12.38 8.05 12.1 6.46 13.26 5.33 11.66 5.1 10.95 3.65"/><polygon class="cls-1" points="20.68 3.65 19.96 5.1 18.36 5.33 19.52 6.46 19.25 8.05 20.68 7.3 22.11 8.05 21.83 6.46 22.99 5.33 21.39 5.1 20.68 3.65"/><polygon class="cls-1" points="30.41 3.65 29.69 5.1 28.09 5.33 29.25 6.46 28.98 8.05 30.41 7.3 31.84 8.05 31.56 6.46 32.72 5.33 31.12 5.1 30.41 3.65"/><polygon class="cls-1" points="35.27 10.95 34.55 12.39 32.96 12.63 34.11 13.75 33.84 15.35 35.27 14.6 36.7 15.35 36.43 13.75 37.58 12.63 35.98 12.39 35.27 10.95"/><polygon class="cls-1" points="6.08 10.95 5.37 12.39 3.77 12.63 4.92 13.75 4.65 15.35 6.08 14.6 7.51 15.35 7.24 13.75 8.39 12.63 6.8 12.39 6.08 10.95"/><polygon class="cls-1" points="15.81 10.95 15.1 12.39 13.5 12.63 14.65 13.75 14.38 15.35 15.81 14.6 17.24 15.35 16.97 13.75 18.12 12.63 16.53 12.39 15.81 10.95"/><polygon class="cls-1" points="25.54 10.95 24.83 12.39 23.23 12.63 24.38 13.75 24.11 15.35 25.54 14.6 26.97 15.35 26.7 13.75 27.85 12.63 26.25 12.39 25.54 10.95"/><polygon class="cls-1" points="40.13 3.65 39.42 5.1 37.82 5.33 38.98 6.46 38.7 8.05 40.13 7.3 41.56 8.05 41.29 6.46 42.45 5.33 40.85 5.1 40.13 3.65"/><polygon class="cls-1" points="10.95 18.24 10.23 19.69 8.63 19.92 9.79 21.05 9.52 22.64 10.95 21.89 12.38 22.64 12.1 21.05 13.26 19.92 11.66 19.69 10.95 18.24"/><polygon class="cls-1" points="20.68 18.24 19.96 19.69 18.36 19.92 19.52 21.05 19.25 22.64 20.68 21.89 22.11 22.64 21.83 21.05 22.99 19.92 21.39 19.69 20.68 18.24"/><polygon class="cls-1" points="30.41 18.24 29.69 19.69 28.09 19.92 29.25 21.05 28.98 22.64 30.41 21.89 31.84 22.64 31.56 21.05 32.72 19.92 31.12 19.69 30.41 18.24"/><polygon class="cls-1" points="35.27 25.54 34.55 26.99 32.96 27.22 34.11 28.35 33.84 29.94 35.27 29.19 36.7 29.94 36.43 28.35 37.58 27.22 35.98 26.99 35.27 25.54"/><polygon class="cls-1" points="6.08 25.54 5.37 26.99 3.77 27.22 4.92 28.35 4.65 29.94 6.08 29.19 7.51 29.94 7.24 28.35 8.39 27.22 6.8 26.99 6.08 25.54"/><polygon class="cls-1" points="15.81 25.54 15.1 26.99 13.5 27.22 14.65 28.35 14.38 29.94 15.81 29.19 17.24 29.94 16.97 28.35 18.12 27.22 16.53 26.99 15.81 25.54"/><polygon class="cls-1" points="25.54 25.54 24.83 26.99 23.23 27.22 24.38 28.35 24.11 29.94 25.54 29.19 26.97 29.94 26.7 28.35 27.85 27.22 26.25 26.99 25.54 25.54"/><polygon class="cls-1" points="35.98 41.58 35.27 40.13 34.55 41.58 32.96 41.82 34.11 42.94 33.84 44.54 35.27 43.78 36.7 44.54 36.43 42.94 37.58 41.82 35.98 41.58"/><polygon class="cls-1" points="6.8 41.58 6.08 40.13 5.37 41.58 3.77 41.82 4.92 42.94 4.65 44.54 6.08 43.78 7.51 44.54 7.24 42.94 8.39 41.82 6.8 41.58"/><polygon class="cls-1" points="16.53 41.58 15.81 40.13 15.1 41.58 13.5 41.82 14.65 42.94 14.38 44.54 15.81 43.78 17.24 44.54 16.97 42.94 18.12 41.82 16.53 41.58"/><polygon class="cls-1" points="26.25 41.58 25.54 40.13 24.83 41.58 23.23 41.82 24.38 42.94 24.11 44.54 25.54 43.78 26.97 44.54 26.7 42.94 27.85 41.82 26.25 41.58"/><polygon class="cls-1" points="40.13 18.24 39.42 19.69 37.82 19.92 38.98 21.05 38.7 22.64 40.13 21.89 41.56 22.64 41.29 21.05 42.45 19.92 40.85 19.69 40.13 18.24"/><polygon class="cls-1" points="11.66 34.29 10.95 32.84 10.23 34.29 8.63 34.52 9.79 35.65 9.52 37.24 10.95 36.49 12.38 37.24 12.1 35.65 13.26 34.52 11.66 34.29"/><polygon class="cls-1" points="21.39 34.29 20.68 32.84 19.96 34.29 18.36 34.52 19.52 35.65 19.25 37.24 20.68 36.49 22.11 37.24 21.83 35.65 22.99 34.52 21.39 34.29"/><polygon class="cls-1" points="31.12 34.29 30.41 32.84 29.69 34.29 28.09 34.52 29.25 35.65 28.98 37.24 30.41 36.49 31.84 37.24 31.56 35.65 32.72 34.52 31.12 34.29"/><polygon class="cls-1" points="40.85 34.29 40.13 32.84 39.42 34.29 37.82 34.52 38.98 35.65 38.7 37.24 40.13 36.49 41.56 37.24 41.29 35.65 42.45 34.52 40.85 34.29"/></g></g></svg>