<svg xmlns="http://www.w3.org/2000/svg" viewBox="0 0 90 90"><defs><style>.cls-1{fill:#fefd00;}.cls-2{fill:#ea3028;}</style></defs><g id="Layer_2" data-name="Layer 2"><g id="Layer_1-2" data-name="Layer 1"><path class="cls-1" d="M35.39,32.91,43,27.13l-9.57-.2a1.22,1.22,0,0,1-1.12-.81l-3.14-9-3.14,9a1.22,1.22,0,0,1-1.13.81l-9.56.2L23,32.91a1.2,1.2,0,0,1,.43,1.32l-2.77,9.15,7.85-5.46a1.22,1.22,0,0,1,1.39,0l7.86,5.46L35,34.23A1.21,1.21,0,0,1,35.39,32.91Z"/><path class="cls-2" d="M74.19,2.43H15.81A13.38,13.38,0,0,0,2.43,15.81V74.19A13.38,13.38,0,0,0,15.81,87.57H74.19A13.38,13.38,0,0,0,87.57,74.19V15.81A13.38,13.38,0,0,0,74.19,2.43Zm-35,45-10-7-10,7A1.22,1.22,0,0,1,17.3,46l3.54-11.7L11.1,27a1.22,1.22,0,0,1,.71-2.18L24,24.52,28,13a1.22,1.22,0,0,1,2.3,0l4,11.54,12.21.25A1.21,1.21,0,0,1,47.27,27l-9.73,7.38L41.08,46A1.22,1.22,0,0,1,39.22,47.38ZM51.4,48.63l-.19,3.48-2-2.85-3.37.89,2.09-2.79L46,44.44l3.3,1.12,2.2-2.7-.05,3.48,3.25,1.26ZM51.4,17l-.19,3.48-2-2.85-3.37.89,2.09-2.79L46,12.82l3.3,1.12,2.2-2.7-.05,3.48L54.73,16Zm5.76,4.08,2.64,2.28,3.05-1.68L61.5,24.9,64,27.28,60.57,27l-1.48,3.15-.8-3.39-3.45-.44,3-1.8Zm4.57,21.22-2.47-2.46L56.1,41.32l1.57-3.11L55.3,35.65l3.44.54,1.7-3L61,36.59l3.42.67-3.1,1.59Z"/><path d="M74.19,0H15.81A15.81,15.81,0,0,0,0,15.81V74.19A15.81,15.81,0,0,0,15.81,90H74.19A15.81,15.81,0,0,0,90,74.19V15.81A15.81,15.81,0,0,0,74.19,0ZM87.57,74.19A13.38,13.38,0,0,1,74.19,87.57H15.81A13.38,13.38,0,0,1,2.43,74.19V15.81A13.38,13.38,0,0,1,15.81,2.43H74.19A13.38,13.38,0,0,1,87.57,15.81Z"/><path d="M37.54,34.33,47.27,27a1.21,1.21,0,0,0-.71-2.18l-12.21-.25L30.34,13A1.22,1.22,0,0,0,28,13L24,24.52l-12.22.25A1.22,1.22,0,0,0,11.1,27l9.74,7.38L17.3,46a1.22,1.22,0,0,0,1.86,1.35l10-7,10,7A1.22,1.22,0,0,0,41.08,46Zm-7.66,3.59a1.22,1.22,0,0,0-1.39,0l-7.85,5.46,2.77-9.15A1.2,1.2,0,0,0,23,32.91l-7.62-5.78,9.56-.2a1.22,1.22,0,0,0,1.13-.81l3.14-9,3.14,9a1.22,1.22,0,0,0,1.12.81l9.57.2-7.63,5.78A1.21,1.21,0,0,0,35,34.23l2.77,9.15Z"/><polygon class="cls-1" points="51.53 11.24 49.33 13.94 46.03 12.82 47.92 15.74 45.83 18.53 49.2 17.64 51.21 20.49 51.4 17.01 54.73 15.98 51.48 14.72 51.53 11.24"/><polygon class="cls-1" points="58.29 26.75 59.09 30.14 60.57 26.99 64.04 27.28 61.5 24.9 62.85 21.69 59.8 23.37 57.16 21.09 57.82 24.51 54.84 26.31 58.29 26.75"/><polygon class="cls-1" points="60.99 36.59 60.44 33.15 58.74 36.19 55.3 35.66 57.67 38.21 56.09 41.32 59.26 39.85 61.73 42.31 61.31 38.85 64.41 37.26 60.99 36.59"/><polygon class="cls-1" points="51.53 42.86 49.33 45.56 46.03 44.44 47.92 47.37 45.83 50.15 49.2 49.26 51.21 52.11 51.4 48.63 54.73 47.6 51.48 46.34 51.53 42.86"/></g></g></svg>