<svg xmlns="http://www.w3.org/2000/svg" viewBox="0 0 90 90"><defs><style>.cls-1{fill:#36c;}.cls-2{fill:#fff;}</style></defs><g id="Layer_2" data-name="Layer 2"><g id="Layer_1-2" data-name="Layer 1"><polygon class="cls-1" points="48.65 49.26 48.65 40.74 48.65 31.16 31.54 31.16 31.54 49.26 48.65 49.26"/><rect class="cls-1" x="2.43" y="31.16" width="17.11" height="18.1"/><path class="cls-2" d="M2.43,74.19A13.28,13.28,0,0,0,3,78H87a13.28,13.28,0,0,0,.56-3.8V70.84H2.43Z"/><path class="cls-1" d="M15.81,87.57H74.19A13.36,13.36,0,0,0,86,80.42H4A13.36,13.36,0,0,0,15.81,87.57Z"/><rect class="cls-1" x="2.43" y="61.27" width="85.14" height="7.15"/><polygon class="cls-1" points="48.65 9.58 48.65 2.43 31.54 2.43 31.54 19.17 48.65 19.17 48.65 9.58"/><polygon class="cls-2" points="21.98 48.65 29.1 48.65 29.1 28.73 48.65 28.73 48.65 21.6 29.1 21.6 29.1 2.43 21.98 2.43 21.98 21.6 20.76 21.6 2.43 21.6 2.43 28.73 21.98 28.73 21.98 48.65"/><path class="cls-1" d="M19.54,2.43H15.81A13.38,13.38,0,0,0,2.43,15.81v3.36H19.54Z"/><path class="cls-2" d="M51.08,19.16H87.57V15.81A13.28,13.28,0,0,0,87,12H51.08Z"/><path class="cls-1" d="M74.19,2.43H51.08V9.58H86A13.36,13.36,0,0,0,74.19,2.43Z"/><rect class="cls-1" x="51.08" y="21.59" width="36.49" height="7.15"/><rect class="cls-2" x="2.43" y="51.69" width="85.14" height="7.15"/><rect class="cls-2" x="51.08" y="31.17" width="36.49" height="7.15"/><rect class="cls-1" x="51.08" y="40.74" width="36.49" height="8.51"/><path d="M74.19,0H15.81A15.81,15.81,0,0,0,0,15.81V74.19A15.81,15.81,0,0,0,15.81,90H74.19A15.81,15.81,0,0,0,90,74.19V15.81A15.81,15.81,0,0,0,74.19,0ZM31.54,2.43H48.65V19.17H31.54ZM2.43,15.81A13.38,13.38,0,0,1,15.81,2.43h3.73V19.17H2.43Zm0,5.79H22V2.43H29.1V21.6H48.65v7.13H29.1V48.65H22V28.73H2.43Zm46.22,9.56v18.1H31.54V31.16Zm-46.22,0H19.54v18.1H2.43ZM74.19,87.57H15.81A13.36,13.36,0,0,1,4,80.42H86A13.36,13.36,0,0,1,74.19,87.57ZM87.57,74.19A13.28,13.28,0,0,1,87,78H3a13.28,13.28,0,0,1-.56-3.8V70.84H87.57Zm0-5.78H2.43V61.27H87.57Zm0-9.58H2.43V51.69H87.57Zm0-9.57H51.08V40.74H87.57Zm0-10.95H51.08V31.17H87.57Zm0-9.58H51.08V21.59H87.57Zm0-12.92v3.35H51.08V12H87A13.28,13.28,0,0,1,87.57,15.81ZM51.08,9.58V2.43H74.19A13.36,13.36,0,0,1,86,9.58Z"/></g></g></svg>