<svg xmlns="http://www.w3.org/2000/svg" viewBox="0 0 90 90"><defs><style>.cls-1{fill:#ce3a3e;}.cls-2{fill:#fff;}.cls-3{fill:#249a4f;}</style></defs><g id="Layer_2" data-name="Layer 2"><g id="Layer_1-2" data-name="Layer 1"><path class="cls-1" d="M74.19,2.43H60.81V87.57H74.19A13.38,13.38,0,0,0,87.57,74.19V15.81A13.38,13.38,0,0,0,74.19,2.43Z"/><rect class="cls-2" x="31.62" y="2.43" width="26.76" height="85.14"/><path class="cls-3" d="M2.43,15.81V74.19A13.38,13.38,0,0,0,15.81,87.57H29.19V2.43H15.81A13.38,13.38,0,0,0,2.43,15.81Z"/><path d="M74.19,0H15.81A15.81,15.81,0,0,0,0,15.81V74.19A15.81,15.81,0,0,0,15.81,90H74.19A15.81,15.81,0,0,0,90,74.19V15.81A15.81,15.81,0,0,0,74.19,0Zm-45,87.57H15.81A13.38,13.38,0,0,1,2.43,74.19V15.81A13.38,13.38,0,0,1,15.81,2.43H29.19Zm29.19,0H31.62V2.43H58.38ZM87.57,74.19A13.38,13.38,0,0,1,74.19,87.57H60.81V2.43H74.19A13.38,13.38,0,0,1,87.57,15.81Z"/></g></g></svg>